<?xml version="1.0" standalone="no"?>
<!DOCTYPE svg PUBLIC "-//W3C//DTD SVG 20010904//EN"
 "http://www.w3.org/TR/2001/REC-SVG-20010904/DTD/svg10.dtd">
<svg version="1.0" xmlns="http://www.w3.org/2000/svg"
 width="225.000000pt" height="225.000000pt" viewBox="0 0 225.000000 225.000000"
 preserveAspectRatio="xMidYMid meet">

<g transform="translate(0.000000,225.000000) scale(0.100000,-0.100000)"
fill="#000000" stroke="none">
<path d="M1365 2209 c-4 -5 -4 -13 -1 -16 3 -4 6 0 6 8 0 11 2 11 10 -1 6 -9
10 -10 10 -3 0 17 -17 25 -25 12z"/>
<path d="M1910 2199 c-7 -11 -10 -23 -7 -25 2 -2 9 7 15 21 14 30 7 33 -8 4z"/>
<path d="M115 2190 c-17 -19 -17 -20 -1 -20 9 0 14 5 11 10 -3 6 0 13 8 16 23
8 76 -23 97 -59 11 -18 20 -27 20 -21 0 28 -75 94 -108 94 -5 0 -17 -9 -27
-20z"/>
<path d="M1000 2201 c25 -4 55 -12 68 -19 12 -7 22 -10 22 -8 0 14 -63 36 -97
35 l-38 -2 45 -6z"/>
<path d="M1698 2184 c-27 -14 -54 -51 -45 -61 3 -2 8 5 12 16 7 24 53 51 85
51 28 0 61 -17 83 -44 l18 -21 -11 22 c-13 27 -59 53 -92 53 -13 -1 -35 -7
-50 -16z"/>
<path d="M322 2153 c1 -37 1 -37 5 -6 3 19 11 34 21 36 12 3 10 5 -5 6 -20 1
-23 -3 -21 -36z"/>
<path d="M889 2173 c-13 -17 -13 -17 6 -3 11 8 22 16 24 17 2 2 0 3 -6 3 -6 0
-17 -8 -24 -17z"/>
<path d="M1246 2165 c9 -14 20 -25 25 -25 5 0 -1 11 -13 25 -12 14 -23 25 -25
25 -2 0 4 -11 13 -25z"/>
<path d="M2062 2181 c2 -7 7 -12 11 -12 12 1 9 15 -3 20 -7 2 -11 -2 -8 -8z"/>
<path d="M526 2172 c-6 -10 29 -25 52 -23 6 1 12 -5 12 -14 0 -8 6 -15 13 -15
6 0 4 -5 -5 -11 -10 -5 -18 -16 -18 -24 0 -10 -5 -11 -23 -2 -16 7 -23 18 -21
36 1 17 0 19 -3 6 -3 -11 -9 -24 -14 -29 -15 -17 -10 -24 12 -19 14 4 27 0 35
-12 12 -16 13 -16 20 9 4 17 13 26 27 26 19 0 19 1 4 18 -10 11 -14 26 -10 42
6 23 6 23 -17 7 -22 -15 -26 -15 -41 -1 -10 9 -20 11 -23 6z"/>
<path d="M679 2159 l-24 -21 25 16 c56 36 113 15 189 -71 28 -31 51 -54 51
-49 0 13 -104 118 -132 132 -39 20 -82 17 -109 -7z"/>
<path d="M165 2156 c17 -7 39 -29 50 -50 21 -38 45 -48 45 -18 0 13 -2 14 -9
4 -6 -10 -14 -5 -31 22 -22 37 -48 56 -72 56 -7 -1 1 -7 17 -14z"/>
<path d="M350 2096 c0 -50 -4 -76 -12 -79 -8 -3 -6 -6 5 -6 15 -1 17 9 17 79
0 44 -2 80 -5 80 -3 0 -5 -33 -5 -74z"/>
<path d="M1221 2160 c-1 -8 -13 -24 -28 -37 -27 -22 -27 -22 -5 -23 17 0 22
-6 22 -25 0 -30 11 -32 27 -6 8 13 19 17 39 13 23 -4 25 -3 16 14 -7 13 -6 24
5 41 8 13 11 23 5 23 -11 0 -25 -37 -22 -59 1 -9 -4 -12 -16 -7 -10 4 -22 0
-30 -11 -13 -17 -13 -17 -14 0 0 10 -7 20 -15 23 -12 5 -11 9 7 23 11 10 18
24 15 32 -5 12 -6 12 -6 -1z"/>
<path d="M1438 2163 c7 -3 16 -2 19 1 4 3 -2 6 -13 5 -11 0 -14 -3 -6 -6z"/>
<path d="M1471 2157 c2 -1 13 -9 24 -17 19 -14 19 -14 6 3 -7 9 -18 17 -24 17
-6 0 -8 -1 -6 -3z"/>
<path d="M993 2143 c-7 -2 -13 -9 -13 -15 0 -6 6 -6 15 2 22 18 48 4 42 -22
-5 -16 -3 -18 6 -9 23 23 -17 58 -50 44z"/>
<path d="M1590 2141 c0 -6 4 -12 8 -15 5 -3 9 1 9 9 0 8 -4 15 -9 15 -4 0 -8
-4 -8 -9z"/>
<path d="M1102 2120 c0 -14 2 -19 5 -12 2 6 2 18 0 25 -3 6 -5 1 -5 -13z"/>
<path d="M1950 2130 c0 -5 5 -10 10 -10 6 0 10 5 10 10 0 6 -4 10 -10 10 -5 0
-10 -4 -10 -10z"/>
<path d="M80 2127 c0 -17 20 -45 37 -51 16 -5 16 -5 2 6 -8 7 -21 22 -27 33
-6 11 -12 16 -12 12z"/>
<path d="M651 2095 c-1 -44 18 -79 52 -96 15 -7 13 -3 -7 14 -23 18 -31 36
-37 73 l-6 49 -2 -40z"/>
<path d="M1391 2105 c-1 -34 14 -55 39 -54 10 0 9 3 -5 8 -12 5 -22 21 -26 42
l-6 34 -2 -30z"/>
<path d="M422 2095 c0 -16 2 -22 5 -12 2 9 2 23 0 30 -3 6 -5 -1 -5 -18z"/>
<path d="M1726 2104 c-23 -23 -20 -30 4 -9 15 14 23 16 32 7 17 -17 1 -45 -24
-39 -15 4 -18 3 -10 -5 25 -25 65 19 42 47 -16 19 -25 19 -44 -1z"/>
<path d="M1851 2093 c-2 -48 -20 -80 -55 -97 -17 -9 -24 -16 -15 -16 23 0 67
43 74 73 4 14 5 36 2 48 -3 19 -5 17 -6 -8z"/>
<path d="M2029 2100 c-36 -19 -99 -83 -99 -100 0 -5 19 -19 43 -31 23 -12 74
-53 114 -91 81 -79 107 -86 109 -28 l2 35 -5 -32 c-2 -18 -7 -33 -11 -33 -4 0
-34 27 -67 60 -32 32 -62 57 -66 54 -4 -2 -13 5 -19 16 -6 11 -14 18 -19 16
-4 -3 -12 4 -19 14 -9 16 -6 22 21 43 41 31 92 57 111 57 8 0 19 -12 24 -27 6
-16 11 -21 11 -13 1 22 -36 80 -51 80 -7 0 -5 -5 6 -11 16 -10 14 -13 -24 -30
-56 -25 -122 -78 -113 -92 4 -7 0 -8 -11 -4 -10 4 -19 7 -22 7 -2 0 -1 8 3 18
11 32 47 64 98 88 28 13 43 24 35 23 -8 0 -31 -8 -51 -19z m81 -225 c30 -30
52 -55 49 -55 -2 0 -29 25 -59 55 -30 30 -52 55 -49 55 2 0 29 -25 59 -55z"/>
<path d="M1642 2090 c0 -14 2 -19 5 -12 2 6 2 18 0 25 -3 6 -5 1 -5 -13z"/>
<path d="M333 2065 c0 -22 2 -30 4 -17 2 12 2 30 0 40 -3 9 -5 -1 -4 -23z"/>
<path d="M1522 2080 c0 -14 2 -19 5 -12 2 6 2 18 0 25 -3 6 -5 1 -5 -13z"/>
<path d="M980 2081 c0 -16 38 -33 63 -28 19 4 18 4 -5 6 -15 0 -34 8 -42 17
-9 8 -16 11 -16 5z"/>
<path d="M1079 2073 c-13 -16 -12 -17 4 -4 9 7 17 15 17 17 0 8 -8 3 -21 -13z"/>
<path d="M1338 2048 c-10 -10 -14 -18 -9 -18 10 0 36 29 30 34 -2 1 -12 -6
-21 -16z"/>
<path d="M1565 2051 c-6 -11 9 -23 19 -14 9 9 7 23 -3 23 -6 0 -12 -4 -16 -9z"/>
<path d="M1650 2052 c0 -20 56 -72 77 -72 11 1 6 6 -14 15 -17 7 -38 26 -47
42 -8 15 -15 22 -16 15z"/>
<path d="M76 2042 c-3 -5 8 -6 25 -4 16 2 29 6 29 8 0 8 -49 4 -54 -4z"/>
<path d="M1511 2039 c-1 -25 -39 -68 -79 -89 -21 -10 -32 -19 -26 -20 34 -1
121 86 111 111 -4 10 -6 10 -6 -2z"/>
<path d="M2095 2019 c-4 -6 -4 -13 -1 -16 3 -4 6 -1 6 6 0 8 6 11 16 7 8 -3
12 -2 9 4 -8 13 -22 13 -30 -1z"/>
<path d="M220 2009 c0 -5 5 -7 10 -4 6 3 10 8 10 11 0 2 -4 4 -10 4 -5 0 -10
-5 -10 -11z"/>
<path d="M528 2013 c7 -3 16 -2 19 1 4 3 -2 6 -13 5 -11 0 -14 -3 -6 -6z"/>
<path d="M581 2017 c2 -1 13 -9 24 -17 19 -14 19 -14 6 3 -7 9 -18 17 -24 17
-6 0 -8 -1 -6 -3z"/>
<path d="M884 1996 c-3 -14 -13 -27 -22 -29 -10 -2 -6 -3 7 -2 33 4 68 -13 74
-36 5 -19 37 -27 37 -9 0 5 -7 7 -15 4 -9 -4 -15 0 -15 10 0 8 -13 22 -30 31
-16 9 -30 20 -30 25 0 15 21 23 33 11 6 -6 15 -11 21 -11 14 0 -27 29 -41 30
-7 0 -15 -11 -19 -24z"/>
<path d="M1310 2013 c8 -3 22 -11 30 -17 13 -10 13 -9 1 7 -7 9 -21 17 -30 16
-13 0 -14 -1 -1 -6z"/>
<path d="M2161 2004 c0 -11 3 -14 6 -6 3 7 2 16 -1 19 -3 4 -6 -2 -5 -13z"/>
<path d="M482 1994 c-34 -23 -52 -68 -50 -121 1 -46 2 -46 5 -8 6 68 13 87 45
117 34 31 34 36 0 12z"/>
<path d="M978 1993 c25 -5 29 -18 7 -27 -8 -3 -15 -11 -14 -18 0 -10 2 -10 6
0 2 6 11 12 20 12 26 0 10 35 -17 37 -22 1 -22 1 -2 -4z"/>
<path d="M745 1980 c19 -8 83 -14 74 -6 -2 2 -24 6 -49 9 -30 4 -38 3 -25 -3z"/>
<path d="M1067 1971 c-4 -17 -3 -21 5 -13 5 5 8 16 6 23 -3 8 -7 3 -11 -10z"/>
<path d="M72 1968 c2 -6 11 -13 19 -16 12 -3 12 -2 0 6 -11 8 -11 10 0 15 10
4 8 6 -4 6 -10 1 -17 -4 -15 -11z"/>
<path d="M622 1947 c-2 -29 -7 -40 -27 -49 -30 -14 -55 3 -55 38 0 24 24 34
33 14 3 -6 4 -5 3 2 -2 7 -11 13 -22 13 -26 0 -31 -41 -8 -66 21 -24 36 -24
64 -1 17 13 21 25 17 52 l-4 35 -1 -38z"/>
<path d="M2172 1960 c0 -14 2 -19 5 -12 2 6 2 18 0 25 -3 6 -5 1 -5 -13z"/>
<path d="M273 1955 c-3 -9 -3 -19 1 -22 3 -4 6 1 6 10 0 10 7 17 15 17 10 0
15 -11 16 -32 0 -27 2 -29 8 -13 4 11 6 28 3 37 -5 22 -40 24 -49 3z"/>
<path d="M1205 1938 c-11 -22 -12 -28 -2 -16 13 16 15 16 43 -1 16 -10 44 -34
62 -55 17 -20 32 -33 32 -28 0 12 -96 102 -110 102 -5 0 -10 5 -10 10 0 31 85
-5 123 -52 l18 -23 -11 22 c-14 29 -78 73 -107 73 -15 0 -27 -10 -38 -32z"/>
<path d="M230 1940 c6 -11 13 -20 16 -20 2 0 0 9 -6 20 -6 11 -13 20 -16 20
-2 0 0 -9 6 -20z"/>
<path d="M1572 1930 c-7 -11 -23 -20 -37 -20 -25 0 -33 -14 -15 -25 7 -4 7
-13 0 -26 -9 -16 -7 -19 12 -19 18 0 20 2 8 10 -8 5 -11 12 -7 16 4 4 1 14 -5
22 -10 12 -9 14 7 10 12 -2 27 5 37 17 17 20 17 20 18 -3 0 -12 7 -25 15 -28
8 -4 12 -10 9 -15 -3 -5 -1 -9 5 -9 20 0 21 19 1 25 -11 3 -20 14 -20 23 0 32
-15 43 -28 22z"/>
<path d="M341 1919 c0 -15 6 -32 14 -39 12 -10 12 -14 0 -26 -7 -8 -22 -14
-33 -14 -14 0 -21 -9 -26 -31 -3 -18 -16 -40 -28 -50 -11 -11 -16 -19 -10 -19
16 0 52 50 52 71 0 12 7 19 19 19 11 0 23 5 27 12 5 8 10 6 15 -8 7 -16 8 -15
8 7 1 15 -5 32 -13 39 -8 6 -17 24 -19 38 l-4 27 -2 -26z"/>
<path d="M1935 1931 c31 -5 42 -12 49 -33 12 -35 -15 -81 -47 -76 -30 4 -36
45 -7 51 18 4 18 5 -2 3 -28 -1 -32 -43 -5 -60 21 -14 46 0 67 37 13 24 13 30
0 55 -13 22 -23 27 -55 28 l-40 2 40 -7z"/>
<path d="M132 1921 c-7 -4 -20 -20 -27 -35 -12 -22 -12 -31 0 -60 11 -26 11
-36 2 -46 -10 -10 -7 -12 12 -7 16 4 33 -1 49 -14 27 -21 62 -26 62 -8 0 5 -5
7 -10 4 -14 -9 -51 5 -44 16 3 5 2 9 -3 8 -20 -5 -45 16 -58 48 -15 34 -12 58
5 48 4 -3 6 3 3 14 -6 22 23 36 34 16 7 -11 11 -11 28 2 20 15 20 15 -2 8 -14
-4 -23 -2 -23 4 0 13 -10 14 -28 2z"/>
<path d="M1855 1904 c-14 -15 -25 -32 -25 -37 0 -6 1 -8 3 -6 1 2 15 19 31 37
17 17 26 32 22 32 -4 0 -18 -12 -31 -26z"/>
<path d="M2182 1910 c0 -14 2 -19 5 -12 2 6 2 18 0 25 -3 6 -5 1 -5 -13z"/>
<path d="M1720 1910 c-23 -7 -23 -8 -3 -9 12 -1 25 4 28 9 3 6 5 10 3 9 -2 -1
-14 -5 -28 -9z"/>
<path d="M739 1883 c-12 -16 -12 -17 1 -7 8 6 22 14 30 17 13 5 12 6 -1 6 -9
1 -23 -7 -30 -16z"/>
<path d="M1172 1875 c-17 -37 -14 -45 4 -12 9 16 14 31 11 33 -2 2 -9 -7 -15
-21z"/>
<path d="M790 1888 c0 -2 9 -11 20 -21 11 -9 20 -13 20 -7 0 5 -9 14 -20 20
-11 6 -20 9 -20 8z"/>
<path d="M1690 1888 c0 -2 9 -11 20 -21 11 -9 20 -13 20 -7 0 5 -9 14 -20 20
-11 6 -20 9 -20 8z"/>
<path d="M706 1854 c-10 -25 10 -42 54 -46 22 -2 36 0 32 4 -4 3 -23 8 -42 10
-30 2 -35 7 -33 26 3 26 -2 29 -11 6z"/>
<path d="M1366 1857 c3 -10 9 -15 12 -12 3 3 0 11 -7 18 -10 9 -11 8 -5 -6z"/>
<path d="M1591 1846 c-1 -16 -3 -17 -18 -5 -13 10 -13 8 2 -10 17 -19 21 -20
23 -7 2 9 1 22 -1 29 -3 6 -6 4 -6 -7z"/>
<path d="M910 1827 c0 -13 -9 -32 -20 -42 -11 -10 -20 -22 -20 -27 0 -5 11 4
25 20 14 17 25 38 25 48 1 18 1 18 11 2 5 -10 17 -18 26 -18 10 0 13 -6 9 -17
-5 -15 -4 -15 9 1 8 11 15 25 14 30 0 7 -2 7 -5 0 -6 -15 -41 -6 -48 12 -9 22
-26 16 -26 -9z"/>
<path d="M2040 1840 c0 -5 5 -10 10 -10 6 0 10 5 10 10 0 6 -4 10 -10 10 -5 0
-10 -4 -10 -10z"/>
<path d="M832 1808 c-2 -36 -22 -66 -22 -32 0 10 -3 15 -6 11 -4 -3 -3 -14 0
-23 12 -31 38 7 33 47 l-4 34 -1 -37z"/>
<path d="M570 1816 c0 -9 7 -16 16 -16 17 0 14 22 -4 28 -7 2 -12 -3 -12 -12z"/>
<path d="M1142 1805 c-17 -37 -14 -45 4 -12 9 16 14 31 11 33 -2 2 -9 -7 -15
-21z"/>
<path d="M1378 1808 c-2 -16 -16 -27 -48 -40 -25 -9 -39 -17 -33 -17 7 -1 31
6 53 15 31 13 40 21 40 40 0 30 -8 31 -12 2z"/>
<path d="M1218 1813 c6 -2 18 -2 25 0 6 3 1 5 -13 5 -14 0 -19 -2 -12 -5z"/>
<path d="M1341 1804 c0 -11 3 -14 6 -6 3 7 2 16 -1 19 -3 4 -6 -2 -5 -13z"/>
<path d="M1812 1800 c0 -14 2 -19 5 -12 2 6 2 18 0 25 -3 6 -5 1 -5 -13z"/>
<path d="M383 1760 c0 -25 2 -35 4 -22 2 12 2 32 0 45 -2 12 -4 2 -4 -23z"/>
<path d="M1476 1775 c8 -37 14 -45 14 -19 0 10 -5 26 -10 34 -8 11 -9 7 -4
-15z"/>
<path d="M670 1786 c0 -2 8 -10 18 -17 15 -13 16 -12 3 4 -13 16 -21 21 -21
13z"/>
<path d="M2088 1765 c-3 -14 -1 -25 3 -25 5 0 9 10 9 23 1 20 2 20 11 5 5 -10
19 -18 31 -18 16 0 18 -3 9 -14 -6 -7 -9 -21 -5 -30 4 -10 1 -16 -7 -16 -11 0
-11 -3 1 -10 25 -16 30 -11 19 16 -7 21 -6 31 7 45 16 18 16 19 -13 19 -18 0
-33 6 -37 15 -8 23 -23 18 -28 -10z"/>
<path d="M450 1764 c0 -8 4 -13 9 -9 5 3 12 1 16 -4 7 -12 45 -10 45 2 0 5 -8
6 -19 2 -12 -3 -21 0 -25 10 -7 20 -26 19 -26 -1z"/>
<path d="M651 1763 c-1 -18 4 -23 22 -22 15 1 17 3 5 6 -9 2 -19 12 -21 21 -3
12 -5 10 -6 -5z"/>
<path d="M1618 1770 c-11 -7 -16 -23 -16 -57 1 -60 8 -73 50 -97 33 -19 33
-19 -6 16 -33 29 -38 38 -32 61 8 32 45 45 84 28 25 -11 26 -10 8 4 -23 18
-49 19 -77 5 -16 -9 -19 -7 -19 9 0 12 10 23 28 29 15 6 20 11 12 11 -8 0 -22
-4 -32 -9z"/>
<path d="M1675 1771 c-3 -5 0 -13 6 -17 8 -4 9 -3 5 4 -12 19 30 14 74 -8 56
-28 64 -24 10 5 -47 25 -85 31 -95 16z"/>
<path d="M1990 1769 c0 -5 5 -7 10 -4 6 3 10 8 10 11 0 2 -4 4 -10 4 -5 0 -10
-5 -10 -11z"/>
<path d="M351 1754 c0 -11 3 -14 6 -6 3 7 2 16 -1 19 -3 4 -6 -2 -5 -13z"/>
<path d="M908 1745 c5 -30 13 -32 30 -5 7 11 18 17 27 14 8 -4 15 -2 15 4 0
13 -24 10 -44 -7 -14 -11 -16 -11 -16 3 0 9 -4 16 -9 16 -4 0 -6 -11 -3 -25z"/>
<path d="M1112 1735 c-17 -37 -15 -45 11 -44 18 1 18 2 4 6 -11 3 -16 10 -13
20 3 8 6 17 6 19 0 3 4 2 10 -1 6 -3 7 1 4 9 -8 21 -9 20 -22 -9z"/>
<path d="M1032 1739 c2 -6 8 -10 13 -10 5 0 11 4 13 10 2 6 -4 11 -13 11 -9 0
-15 -5 -13 -11z"/>
<path d="M1240 1740 c-18 -12 -2 -12 25 0 13 6 15 9 5 9 -8 0 -22 -4 -30 -9z"/>
<path d="M1535 1739 c-10 -15 3 -25 16 -12 7 7 7 13 1 17 -6 3 -14 1 -17 -5z"/>
<path d="M64 1729 c-3 -6 -2 -15 4 -21 6 -6 12 -6 17 3 5 8 4 10 -3 5 -7 -4
-12 -3 -12 3 0 5 6 12 13 14 9 4 9 6 0 6 -6 1 -15 -4 -19 -10z"/>
<path d="M137 1705 c9 -19 18 -33 21 -31 4 5 -26 66 -33 66 -3 0 3 -16 12 -35z"/>
<path d="M772 1720 c-18 -11 -40 -20 -49 -20 -15 0 -15 -1 1 -13 16 -12 16
-14 2 -26 -8 -7 -21 -10 -28 -6 -7 4 2 -5 20 -20 17 -14 32 -36 32 -47 0 -25
-65 -112 -121 -163 -46 -42 -80 -45 -114 -10 -14 13 -25 20 -25 15 0 -16 53
-50 79 -50 19 0 44 19 96 73 38 40 77 86 85 102 8 17 20 38 28 47 8 9 12 23 9
30 -2 7 4 30 14 50 32 62 25 71 -29 38z m21 -35 c-19 -36 -19 -36 -37 -16 -18
19 -17 20 15 40 18 11 35 19 37 17 2 -2 -5 -21 -15 -41z m-17 -71 c-6 -15 -9
-15 -31 6 -19 18 -22 26 -13 37 10 12 14 11 31 -6 12 -12 17 -26 13 -37z"/>
<path d="M2050 1729 c0 -5 5 -7 10 -4 6 3 10 8 10 11 0 2 -4 4 -10 4 -5 0 -10
-5 -10 -11z"/>
<path d="M435 1710 c-18 -19 -17 -20 4 -20 13 0 25 -8 29 -21 8 -20 9 -19 21
7 11 24 10 26 -3 14 -11 -8 -16 -9 -16 -1 0 6 -7 11 -16 11 -14 0 -14 3 -4 15
19 22 6 18 -15 -5z"/>
<path d="M507 1714 c3 -7 9 -14 14 -14 14 0 10 17 -5 23 -10 4 -13 1 -9 -9z"/>
<path d="M1165 1720 c3 -6 1 -10 -6 -10 -7 0 -10 -3 -6 -6 3 -3 13 -2 22 4 16
8 16 9 1 15 -10 4 -15 3 -11 -3z"/>
<path d="M1833 1723 c9 -2 25 -2 35 0 9 3 1 5 -18 5 -19 0 -27 -2 -17 -5z"/>
<path d="M586 1712 c-3 -6 -1 -14 5 -17 15 -10 25 3 12 16 -7 7 -13 7 -17 1z"/>
<path d="M1917 1709 c34 -10 53 -29 31 -30 -7 0 -3 -4 10 -9 29 -12 28 -38 -3
-50 -14 -5 -25 -14 -25 -19 0 -6 -12 -17 -27 -25 -16 -8 -22 -15 -15 -16 7 0
23 10 36 23 13 12 32 27 42 33 11 6 20 18 22 26 4 23 -52 78 -80 77 -19 -1
-17 -2 9 -10z"/>
<path d="M2078 1689 c5 -32 13 -36 32 -14 11 13 10 14 -4 9 -10 -4 -16 -1 -16
9 0 9 -4 18 -8 21 -5 3 -6 -8 -4 -25z"/>
<path d="M1360 1695 c-19 -22 -8 -25 13 -3 9 10 13 18 8 18 -5 0 -14 -7 -21
-15z"/>
<path d="M1400 1706 c0 -2 7 -7 16 -10 8 -3 12 -2 9 4 -6 10 -25 14 -25 6z"/>
<path d="M361 1684 c0 -11 3 -14 6 -6 3 7 2 16 -1 19 -3 4 -6 -2 -5 -13z"/>
<path d="M390 1673 c-1 -37 -17 -57 -60 -71 l-35 -11 35 5 c42 7 70 36 70 75
0 16 -2 29 -5 29 -3 0 -5 -12 -5 -27z"/>
<path d="M1217 1675 c-4 -11 -10 -27 -13 -35 -3 -8 1 -5 11 8 9 12 15 28 13
34 -3 7 -7 4 -11 -7z"/>
<path d="M1481 1677 c-1 -24 -54 -77 -77 -77 -10 0 -26 8 -36 17 -18 16 -18
16 -12 0 9 -25 50 -32 79 -13 31 21 58 61 52 78 -3 8 -6 6 -6 -5z"/>
<path d="M1780 1680 c8 -5 22 -9 30 -9 10 0 8 3 -5 9 -27 12 -43 12 -25 0z"/>
<path d="M893 1664 c-18 -9 -40 -28 -49 -43 -16 -24 -15 -24 17 5 19 17 48 36
64 42 17 6 23 11 15 11 -8 0 -29 -7 -47 -15z"/>
<path d="M603 1623 c-46 -57 -87 -112 -97 -133 -8 -15 2 -3 85 105 25 33 56
62 70 66 22 6 22 7 2 8 -14 1 -34 -15 -60 -46z"/>
<path d="M971 1667 c2 -1 15 -11 29 -22 l25 -20 -19 23 c-11 12 -24 22 -29 22
-6 0 -8 -1 -6 -3z"/>
<path d="M1410 1660 c-9 -6 -10 -10 -3 -10 6 0 15 5 18 10 8 12 4 12 -15 0z"/>
<path d="M1838 1663 c7 -3 16 -2 19 1 4 3 -2 6 -13 5 -11 0 -14 -3 -6 -6z"/>
<path d="M160 1658 c-1 -20 46 -98 59 -98 13 0 12 2 -1 13 -9 6 -25 30 -37 52
-11 22 -20 37 -21 33z"/>
<path d="M1900 1653 c8 -3 22 -11 30 -17 13 -10 13 -9 1 7 -7 9 -21 17 -30 16
-13 0 -14 -1 -1 -6z"/>
<path d="M1258 1633 c7 -3 16 -2 19 1 4 3 -2 6 -13 5 -11 0 -14 -3 -6 -6z"/>
<path d="M907 1612 c-36 -40 -5 -92 54 -92 34 0 69 42 68 79 -1 24 -2 23 -9
-6 -10 -44 -27 -63 -57 -63 -57 0 -82 43 -46 82 9 10 14 18 11 18 -3 0 -12 -8
-21 -18z"/>
<path d="M1522 1605 c0 -16 2 -22 5 -12 2 9 2 23 0 30 -3 6 -5 -1 -5 -18z"/>
<path d="M1545 1620 c3 -5 8 -10 11 -10 2 0 4 5 4 10 0 6 -5 10 -11 10 -5 0
-7 -4 -4 -10z"/>
<path d="M97 1613 c-12 -12 -7 -23 11 -23 13 0 14 2 3 9 -11 7 -11 9 0 14 8 3
9 6 3 6 -6 1 -14 -2 -17 -6z"/>
<path d="M944 1600 c0 -13 4 -16 10 -10 7 7 7 13 0 20 -6 6 -10 3 -10 -10z"/>
<path d="M1110 1591 c0 -11 -6 -22 -12 -24 -8 -3 -6 -6 5 -6 11 -1 17 6 17 20
0 19 2 20 18 8 15 -13 16 -12 3 4 -18 22 -31 22 -31 -2z"/>
<path d="M1716 1585 c17 -7 44 -16 60 -20 25 -4 24 -3 -6 8 -19 8 -46 17 -60
20 -19 5 -17 3 6 -8z"/>
<path d="M250 1580 c-18 -12 -2 -12 25 0 13 6 15 9 5 9 -8 0 -22 -4 -30 -9z"/>
<path d="M500 1575 c-7 -9 -11 -17 -9 -20 3 -2 10 5 17 15 14 24 10 26 -8 5z"/>
<path d="M816 1575 c-3 -9 -6 -22 -5 -28 0 -7 5 -1 10 12 5 13 8 26 5 28 -2 2
-6 -3 -10 -12z"/>
<path d="M1175 1580 c4 -6 1 -19 -6 -28 -11 -13 -9 -13 8 2 22 18 22 36 2 36
-6 0 -7 -5 -4 -10z"/>
<path d="M1541 1574 c0 -11 3 -14 6 -6 3 7 2 16 -1 19 -3 4 -6 -2 -5 -13z"/>
<path d="M1604 1576 c-8 -22 3 -33 18 -18 9 9 9 15 0 24 -9 9 -13 7 -18 -6z"/>
<path d="M462 1555 c0 -16 2 -22 5 -12 2 9 2 23 0 30 -3 6 -5 -1 -5 -18z"/>
<path d="M1078 1543 c12 -8 22 -24 22 -34 0 -21 15 -25 25 -8 4 6 19 7 36 4
25 -6 28 -4 22 11 -4 10 -8 13 -10 7 -3 -7 -11 -9 -19 -6 -8 3 -21 0 -29 -7
-12 -10 -15 -9 -15 5 0 18 -27 45 -45 44 -5 0 0 -7 13 -16z"/>
<path d="M1511 1544 c0 -11 3 -14 6 -6 3 7 2 16 -1 19 -3 4 -6 -2 -5 -13z"/>
<path d="M1833 1553 c9 -2 23 -2 30 0 6 3 -1 5 -18 5 -16 0 -22 -2 -12 -5z"/>
<path d="M2042 1535 c0 -16 2 -22 5 -12 2 9 2 23 0 30 -3 6 -5 -1 -5 -18z"/>
<path d="M105 1537 c-4 -10 -19 -24 -34 -32 -21 -11 -23 -15 -10 -20 11 -4 15
-14 12 -26 -5 -20 11 -27 22 -9 4 6 16 4 31 -6 13 -9 24 -12 24 -8 0 17 -48
32 -61 20 -9 -8 -11 -7 -6 5 3 9 0 22 -6 28 -8 8 -7 11 5 11 9 0 19 8 23 18 6
16 7 16 16 0 6 -10 17 -18 26 -18 14 0 14 -2 -3 -16 -18 -14 -18 -15 4 -4 27
13 29 30 4 30 -11 0 -24 10 -29 23 -10 20 -12 20 -18 4z"/>
<path d="M1530 1539 c0 -8 -7 -27 -15 -43 -12 -23 -12 -26 -1 -17 15 13 30 60
21 69 -3 3 -5 -1 -5 -9z"/>
<path d="M2129 1542 c9 -7 10 -11 2 -15 -7 -4 -8 -5 0 -3 15 2 13 20 -3 24
-10 3 -10 2 1 -6z"/>
<path d="M329 1523 c-13 -17 -13 -17 6 -3 11 8 22 16 24 17 2 2 0 3 -6 3 -6 0
-17 -8 -24 -17z"/>
<path d="M380 1536 c0 -2 7 -7 16 -10 8 -3 12 -2 9 4 -6 10 -25 14 -25 6z"/>
<path d="M802 1510 c0 -14 2 -19 5 -12 2 6 2 18 0 25 -3 6 -5 1 -5 -13z"/>
<path d="M1284 1515 c-4 -8 -15 -15 -25 -15 -12 0 -19 -7 -18 -17 0 -11 3 -13
6 -5 2 6 13 12 24 12 10 0 19 7 19 15 0 21 20 19 21 -2 1 -10 1 -20 1 -23 0
-3 10 -5 23 -5 15 0 26 7 29 19 4 14 2 16 -7 7 -17 -17 -37 -13 -37 9 0 23
-28 27 -36 5z"/>
<path d="M1715 1519 c-4 -6 -4 -13 -1 -16 3 -4 6 -1 6 6 0 8 8 6 25 -5 14 -9
25 -14 25 -11 0 12 -49 36 -55 26z"/>
<path d="M1486 1495 c-9 -14 -13 -25 -8 -25 5 0 14 11 20 25 6 14 10 25 8 25
-2 0 -11 -11 -20 -25z"/>
<path d="M1387 1490 c3 -11 7 -20 9 -20 2 0 4 9 4 20 0 11 -4 20 -9 20 -5 0
-7 -9 -4 -20z"/>
<path d="M1786 1503 c5 -5 12 -12 16 -18 4 -6 8 -2 8 8 0 9 -7 17 -17 17 -9 0
-12 -3 -7 -7z"/>
<path d="M1620 1488 c25 -11 24 -11 -13 -18 -20 -4 -40 -10 -44 -14 -6 -6 45
1 74 9 20 7 3 35 -21 34 -19 0 -19 -1 4 -11z"/>
<path d="M324 1478 c1 -7 12 -14 24 -16 16 -3 22 2 21 15 0 10 -3 13 -6 6 -6
-16 -29 -17 -36 -3 -3 6 -4 5 -3 -2z"/>
<path d="M1016 1483 c-11 -11 -6 -23 9 -23 8 0 15 4 15 9 0 13 -16 22 -24 14z"/>
<path d="M1556 1481 c-4 -5 3 -7 14 -4 23 6 26 13 6 13 -8 0 -17 -4 -20 -9z"/>
<path d="M1720 1482 c0 -6 -9 -14 -20 -17 -24 -8 -27 -25 -3 -25 9 0 13 3 10
7 -4 3 1 12 11 19 9 7 14 16 9 20 -4 4 -7 2 -7 -4z"/>
<path d="M1930 1475 c-28 -16 -19 -21 10 -5 15 8 23 4 44 -23 14 -17 21 -34
15 -36 -6 -1 -17 5 -25 15 -14 18 -14 17 -4 -5 11 -20 9 -26 -13 -45 -14 -11
-27 -31 -30 -44 -4 -19 -3 -21 8 -12 8 6 12 17 9 24 -3 8 21 30 59 55 67 44
88 51 66 24 -13 -15 -12 -15 8 -2 19 11 20 15 7 22 -10 6 -24 3 -40 -8 -25
-16 -26 -16 -57 19 -30 34 -33 35 -57 21z"/>
<path d="M1424 1458 c0 -13 9 -31 21 -40 l20 -17 -22 -1 c-13 0 -23 6 -23 13
-1 6 -10 1 -20 -12 -11 -13 -20 -19 -21 -15 0 5 -4 -1 -9 -13 -13 -32 -63 -31
-95 2 -14 13 -25 31 -25 40 0 8 -5 15 -11 15 -5 0 -7 5 -3 11 4 7 1 10 -7 7
-11 -4 -15 -33 -17 -123 -1 -65 1 -122 5 -126 4 -5 7 43 5 106 -2 72 1 115 7
115 5 0 12 -9 16 -20 9 -29 54 -60 85 -60 19 0 37 10 54 31 19 22 30 28 39 22
6 -6 22 -7 35 -4 l24 6 -25 23 c-16 15 -23 30 -20 43 3 10 1 19 -4 19 -5 0 -9
-10 -9 -22z"/>
<path d="M2173 1465 c0 -8 4 -15 9 -15 4 0 8 7 8 15 0 8 -4 15 -8 15 -5 0 -9
-7 -9 -15z"/>
<path d="M212 1461 c2 -8 15 -21 29 -30 19 -11 21 -12 9 0 -8 8 -21 21 -29 29
-11 12 -12 12 -9 1z"/>
<path d="M1514 1456 c-13 -10 -16 -18 -9 -25 7 -6 16 -5 29 5 11 8 14 14 7 14
-7 0 -9 5 -6 10 9 14 2 13 -21 -4z m16 -10 c0 -3 -4 -8 -10 -11 -5 -3 -10 -1
-10 4 0 6 5 11 10 11 6 0 10 -2 10 -4z"/>
<path d="M1806 1458 c4 -11 1 -18 -7 -18 -7 0 -23 -10 -36 -22 -19 -18 -23
-19 -23 -5 0 9 -4 18 -9 21 -4 3 -6 -6 -3 -19 5 -30 13 -31 36 -6 10 11 29 21
43 23 23 3 23 4 9 23 -13 16 -15 17 -10 3z"/>
<path d="M399 1437 c-10 -14 -32 -23 -65 -28 l-49 -6 42 -2 c31 -1 49 5 70 23
15 13 26 26 23 29 -3 3 -12 -4 -21 -16z"/>
<path d="M736 1451 c-4 -5 -2 -12 3 -15 5 -4 12 -2 15 3 4 5 2 12 -3 15 -5 4
-12 2 -15 -3z"/>
<path d="M1272 1435 c0 -16 2 -22 5 -12 2 9 2 23 0 30 -3 6 -5 -1 -5 -18z"/>
<path d="M1871 1446 c-9 -10 -9 -16 -1 -21 6 -4 14 -4 17 -1 4 3 0 6 -8 6 -10
1 -8 5 5 15 11 8 15 15 9 15 -6 0 -16 -6 -22 -14z"/>
<path d="M1930 1450 c-8 -5 -10 -10 -5 -10 6 0 17 5 25 10 8 5 11 10 5 10 -5
0 -17 -5 -25 -10z"/>
<path d="M1381 1424 c0 -11 3 -14 6 -6 3 7 2 16 -1 19 -3 4 -6 -2 -5 -13z"/>
<path d="M2114 1430 c4 -10 -16 -28 -60 -55 -36 -22 -71 -46 -77 -54 -7 -8 19
6 57 32 46 30 74 43 81 37 13 -11 15 33 2 46 -4 5 -6 2 -3 -6z"/>
<path d="M922 1419 c24 -9 68 -63 68 -83 0 -4 -15 -13 -32 -21 -18 -8 -27 -14
-20 -15 7 0 22 5 33 10 13 7 25 8 37 1 15 -9 15 -10 -4 -11 -24 0 -39 -26 -22
-36 7 -5 8 -2 3 6 -6 9 -4 12 7 8 8 -4 20 2 26 13 10 16 10 21 -2 25 -8 3 -17
16 -20 29 -8 32 -60 85 -83 84 -13 0 -10 -4 9 -10z"/>
<path d="M789 1391 c-16 -16 -29 -35 -29 -43 0 -7 5 -4 11 7 6 11 23 30 38 42
14 13 22 23 18 23 -5 0 -22 -13 -38 -29z"/>
<path d="M1040 1401 c0 -6 4 -12 8 -15 5 -3 9 1 9 9 0 8 -4 15 -9 15 -4 0 -8
-4 -8 -9z"/>
<path d="M1117 1390 c12 -14 29 -41 37 -60 8 -19 15 -29 16 -22 0 21 -26 65
-51 87 l-24 20 22 -25z"/>
<path d="M2029 1393 c-13 -16 -12 -17 4 -4 9 7 17 15 17 17 0 8 -8 3 -21 -13z"/>
<path d="M155 1359 c-11 -17 1 -21 15 -4 8 9 8 15 2 15 -6 0 -14 -5 -17 -11z"/>
<path d="M193 1349 c-2 -19 -1 -20 10 -5 11 15 16 15 56 1 24 -8 46 -13 48
-11 5 4 -85 36 -102 36 -6 0 -11 -10 -12 -21z"/>
<path d="M425 1361 c-6 -11 9 -23 19 -14 9 9 7 23 -3 23 -6 0 -12 -4 -16 -9z"/>
<path d="M2145 1340 c9 -16 18 -30 21 -30 2 0 -2 14 -11 30 -9 17 -18 30 -21
30 -2 0 2 -13 11 -30z"/>
<path d="M1840 1351 c0 -6 4 -12 8 -15 5 -3 9 1 9 9 0 8 -4 15 -9 15 -4 0 -8
-4 -8 -9z"/>
<path d="M485 1330 c-11 -17 5 -32 21 -19 7 6 11 15 8 20 -7 12 -21 11 -29 -1z
m25 -4 c0 -3 -4 -8 -10 -11 -5 -3 -10 -1 -10 4 0 6 5 11 10 11 6 0 10 -2 10
-4z"/>
<path d="M1550 1336 c0 -2 8 -10 18 -17 15 -13 16 -12 3 4 -13 16 -21 21 -21
13z"/>
<path d="M1693 1325 c-22 -15 -63 -110 -63 -143 0 -9 11 14 24 52 13 38 32 76
42 83 28 21 72 16 99 -12 51 -50 22 -116 -72 -168 l-49 -26 -26 24 -27 25 -3
-22 c-2 -13 -14 -28 -28 -35 -14 -7 -19 -13 -11 -13 8 0 25 10 37 21 21 20 24
20 39 5 16 -15 20 -14 67 11 105 57 135 127 79 184 -33 33 -74 38 -108 14z"/>
<path d="M141 1265 c0 -38 3 -76 7 -82 4 -7 6 18 4 55 -5 96 -10 108 -11 27z"/>
<path d="M320 1328 c8 -8 100 -47 100 -43 0 3 -12 11 -27 18 -30 16 -81 33
-73 25z"/>
<path d="M617 1323 c-4 -3 -7 -14 -7 -24 0 -9 -5 -20 -10 -22 -6 -3 -5 -4 2
-3 7 1 14 12 16 24 l3 22 20 -22 20 -23 -17 28 c-18 30 -18 30 -27 20z"/>
<path d="M756 1305 c3 -16 6 -40 6 -53 0 -21 1 -21 13 -6 7 10 19 15 28 11 9
-3 19 -2 22 3 4 6 -7 10 -24 10 -26 0 -32 5 -41 33 -9 30 -10 30 -4 2z"/>
<path d="M181 1304 c0 -11 3 -14 6 -6 3 7 2 16 -1 19 -3 4 -6 -2 -5 -13z"/>
<path d="M1938 1298 c-10 -6 -10 -8 2 -8 8 0 49 -35 92 -77 l77 -77 56 38 c30
21 55 42 55 47 0 10 -41 79 -47 79 -3 0 4 -16 16 -36 12 -19 21 -38 21 -42 0
-4 -23 -23 -51 -42 l-51 -34 -78 80 c-54 55 -83 78 -92 72z"/>
<path d="M72 1289 c2 -6 8 -10 13 -10 5 0 11 4 13 10 2 6 -4 11 -13 11 -9 0
-15 -5 -13 -11z"/>
<path d="M336 1283 c-6 -14 -5 -15 5 -6 7 7 10 15 7 18 -3 3 -9 -2 -12 -12z"/>
<path d="M676 1278 c-10 -39 -7 -44 9 -14 17 33 18 36 6 36 -5 0 -11 -10 -15
-22z"/>
<path d="M1075 1290 c-3 -6 1 -7 9 -4 18 7 21 14 7 14 -6 0 -13 -4 -16 -10z"/>
<path d="M1115 1275 c0 -13 3 -21 8 -18 4 2 7 10 7 18 0 8 -3 16 -7 18 -5 3
-8 -5 -8 -18z"/>
<path d="M210 1281 c0 -10 19 -25 25 -20 1 2 -3 10 -11 17 -8 7 -14 8 -14 3z"/>
<path d="M430 1266 c0 -9 -4 -14 -10 -11 -5 3 -10 1 -10 -5 0 -7 -7 -9 -16 -6
-10 4 -13 2 -8 -6 5 -7 0 -9 -14 -6 -14 4 -20 2 -15 -5 4 -6 -2 -8 -17 -4 -17
4 -20 3 -12 -5 8 -8 24 -6 57 7 44 16 65 38 51 52 -3 4 -6 -1 -6 -11z"/>
<path d="M560 1260 c0 -5 5 -10 10 -10 6 0 10 5 10 10 0 6 -4 10 -10 10 -5 0
-10 -4 -10 -10z"/>
<path d="M894 1258 c9 -5 23 -5 32 0 12 6 7 9 -16 9 -23 0 -28 -3 -16 -9z"/>
<path d="M1061 1254 c0 -11 3 -14 6 -6 3 7 2 16 -1 19 -3 4 -6 -2 -5 -13z"/>
<path d="M1880 1254 c0 -17 22 -14 28 4 2 7 -3 12 -12 12 -9 0 -16 -7 -16 -16z"/>
<path d="M1011 1239 c-1 -20 -9 -29 -33 -37 -33 -11 -33 -12 -3 -6 39 7 48 16
42 45 -4 23 -4 23 -6 -2z"/>
<path d="M1155 1241 c-8 -26 -38 -35 -67 -21 -22 11 -22 10 -4 -4 11 -9 26
-16 33 -16 15 0 53 36 53 50 0 17 -8 11 -15 -9z"/>
<path d="M1510 1250 c0 -5 5 -10 10 -10 6 0 10 5 10 10 0 6 -4 10 -10 10 -5 0
-10 -4 -10 -10z"/>
<path d="M598 1220 c4 -31 16 -38 27 -19 4 6 17 14 29 19 16 7 17 9 4 9 -9 1
-20 -3 -23 -9 -10 -17 -25 -11 -25 10 0 11 -4 20 -8 20 -5 0 -7 -13 -4 -30z"/>
<path d="M830 1240 c0 -5 5 -10 11 -10 5 0 7 5 4 10 -3 6 -8 10 -11 10 -2 0
-4 -4 -4 -10z"/>
<path d="M800 1230 c0 -5 5 -10 11 -10 5 0 7 5 4 10 -3 6 -8 10 -11 10 -2 0
-4 -4 -4 -10z"/>
<path d="M181 1214 c0 -11 3 -14 6 -6 3 7 2 16 -1 19 -3 4 -6 -2 -5 -13z"/>
<path d="M535 1204 c14 -15 25 -32 25 -37 0 -6 3 -8 6 -4 7 7 -34 67 -46 67
-5 0 2 -12 15 -26z"/>
<path d="M773 1222 c-8 -5 -7 -11 3 -19 15 -14 27 -3 16 14 -4 7 -13 9 -19 5z"/>
<path d="M1407 1211 c-4 -16 -11 -22 -21 -18 -9 4 -16 2 -16 -3 0 -5 -15 -11
-32 -13 l-33 -4 36 -1 c41 -2 85 26 77 48 -3 9 -7 6 -11 -9z"/>
<path d="M415 1199 c-4 -6 -17 -14 -29 -19 -14 -6 -16 -9 -5 -9 9 -1 24 8 34
19 10 11 15 20 12 20 -3 0 -9 -5 -12 -11z"/>
<path d="M216 1189 c3 -5 -5 -10 -18 -10 -14 -1 -17 -3 -7 -6 8 -2 26 0 39 5
24 9 24 9 2 14 -12 4 -20 2 -16 -3z"/>
<path d="M268 1193 c7 -3 16 -2 19 1 4 3 -2 6 -13 5 -11 0 -14 -3 -6 -6z"/>
<path d="M446 1185 c-9 -26 -7 -32 5 -12 6 10 9 21 6 23 -2 3 -7 -2 -11 -11z"/>
<path d="M1854 1178 l-19 -23 23 19 c21 18 27 26 19 26 -2 0 -12 -10 -23 -22z"/>
<path d="M2014 1161 c21 -24 44 -57 52 -75 7 -17 13 -24 14 -15 0 19 -47 86
-81 114 -13 11 -6 0 15 -24z"/>
<path d="M55 1180 c-4 -6 -3 -16 3 -22 6 -6 12 -6 17 2 4 6 3 16 -3 22 -6 6
-12 6 -17 -2z"/>
<path d="M871 1173 c-36 -13 -48 -13 -65 -3 -20 12 -20 11 -4 -6 17 -17 20
-17 80 3 35 12 56 21 48 21 -8 0 -35 -7 -59 -15z"/>
<path d="M1253 1183 c9 -2 23 -2 30 0 6 3 -1 5 -18 5 -16 0 -22 -2 -12 -5z"/>
<path d="M1556 1175 c4 -8 8 -15 10 -15 2 0 4 7 4 15 0 8 -4 15 -10 15 -5 0
-7 -7 -4 -15z"/>
<path d="M675 1145 c-15 -19 -25 -42 -22 -52 4 -17 5 -17 6 0 1 23 39 77 53
77 6 0 3 -12 -6 -27 l-17 -28 20 24 c20 22 20 41 1 41 -5 0 -21 -16 -35 -35z"/>
<path d="M1892 1160 c0 -14 2 -19 5 -12 2 6 2 18 0 25 -3 6 -5 1 -5 -13z"/>
<path d="M274 1128 c-4 -13 -12 -26 -18 -30 -7 -5 -7 -8 2 -8 8 0 16 9 19 20
3 11 9 17 14 14 5 -3 6 2 3 10 -8 21 -11 20 -20 -6z"/>
<path d="M1040 1138 c0 -4 7 -8 15 -8 8 0 15 4 15 8 0 5 -7 9 -15 9 -8 0 -15
-4 -15 -9z"/>
<path d="M1131 1137 c2 -1 13 -10 24 -19 15 -12 24 -14 35 -7 13 9 12 10 -2 6
-9 -3 -22 1 -28 9 -7 8 -17 14 -23 14 -6 0 -8 -1 -6 -3z"/>
<path d="M1466 1126 c18 -8 37 -22 43 -33 6 -10 11 -13 11 -6 0 16 -49 53 -69
53 -9 -1 -2 -7 15 -14z"/>
<path d="M456 1114 c-9 -8 -16 -21 -16 -27 0 -6 7 -1 16 11 19 27 57 26 62 -2
6 -28 -14 -42 -35 -26 -17 13 -17 13 -1 -5 14 -15 20 -16 32 -5 19 15 21 41 4
58 -17 17 -44 15 -62 -4z"/>
<path d="M1206 1105 c-4 -14 -1 -35 5 -47 10 -18 9 -20 -7 -14 -13 5 -24 0
-36 -16 -14 -19 -18 -20 -18 -6 0 9 -4 19 -9 22 -5 4 -7 -3 -4 -14 8 -30 21
-34 35 -11 9 15 19 19 37 14 21 -5 23 -3 16 13 -5 10 -8 34 -8 52 2 38 -3 41
-11 7z"/>
<path d="M1286 1122 c-3 -5 1 -9 9 -9 8 0 15 4 15 9 0 4 -4 8 -9 8 -6 0 -12
-4 -15 -8z"/>
<path d="M1394 1112 c-32 -25 -54 -76 -53 -119 l2 -38 6 45 c8 55 23 82 57
109 15 12 23 21 18 21 -5 0 -19 -8 -30 -18z"/>
<path d="M1131 1108 c-1 -10 -10 -23 -21 -30 -24 -16 -26 -28 -3 -28 9 0 13 3
10 7 -4 3 0 14 9 24 9 10 14 24 11 31 -4 8 -6 7 -6 -4z"/>
<path d="M311 1103 c11 -3 15 -12 11 -29 -3 -16 -10 -23 -18 -20 -7 3 -17 0
-20 -6 -5 -8 -10 -5 -15 8 -6 16 -8 14 -8 -10 -1 -25 1 -27 16 -15 9 8 24 13
35 11 13 -2 18 3 18 20 0 13 5 29 12 36 9 9 5 12 -17 11 -17 -1 -23 -3 -14 -6z"/>
<path d="M682 1090 c0 -14 2 -19 5 -12 2 6 2 18 0 25 -3 6 -5 1 -5 -13z"/>
<path d="M873 1103 c9 -2 23 -2 30 0 6 3 -1 5 -18 5 -16 0 -22 -2 -12 -5z"/>
<path d="M1767 1104 c-4 -4 -7 -19 -7 -34 0 -20 -8 -30 -32 -42 l-32 -15 32
-11 c19 -6 32 -7 32 -1 0 5 -10 9 -22 9 -22 1 -21 2 5 16 19 10 27 23 27 41 0
25 1 26 14 8 12 -16 18 -17 47 -7 l34 11 -36 -5 c-29 -5 -37 -2 -45 16 -5 12
-13 18 -17 14z"/>
<path d="M816 1091 c-4 -5 3 -7 14 -4 23 6 26 13 6 13 -8 0 -17 -4 -20 -9z"/>
<path d="M951 1071 c34 -34 37 -63 9 -91 -11 -11 -16 -20 -11 -20 14 0 41 41
41 61 0 19 -46 79 -60 79 -5 0 5 -13 21 -29z"/>
<path d="M1641 1078 c-1 -31 -18 -46 -27 -24 -3 9 -16 16 -28 15 -14 0 -16 -2
-6 -6 8 -3 22 -12 31 -20 14 -12 18 -11 28 1 7 8 11 25 8 38 -4 21 -4 20 -6
-4z"/>
<path d="M2169 1092 c9 -7 10 -11 2 -15 -7 -4 -8 -5 0 -3 15 2 13 20 -3 24
-10 3 -10 2 1 -6z"/>
<path d="M225 1080 c3 -5 11 -10 16 -10 6 0 7 5 4 10 -3 6 -11 10 -16 10 -6 0
-7 -4 -4 -10z"/>
<path d="M571 1074 c-1 -21 -24 -47 -51 -57 -13 -5 -13 -6 1 -6 23 -1 62 44
56 66 -4 16 -5 15 -6 -3z"/>
<path d="M50 1076 c0 -2 8 -10 18 -17 15 -13 16 -12 3 4 -13 16 -21 21 -21 13z"/>
<path d="M1927 1062 c-9 -10 -17 -27 -16 -38 1 -15 2 -14 8 5 8 30 33 46 56
37 12 -4 16 -13 12 -28 -5 -16 -3 -18 6 -9 8 8 9 16 1 29 -15 24 -47 26 -67 4z"/>
<path d="M136 1053 c-6 -14 -5 -15 5 -6 7 7 10 15 7 18 -3 3 -9 -2 -12 -12z"/>
<path d="M1430 1055 c-13 -16 -5 -55 12 -55 6 0 6 6 -2 15 -16 19 -5 49 16 41
8 -3 12 -2 9 4 -9 14 -21 12 -35 -5z"/>
<path d="M1521 1054 c0 -11 3 -14 6 -6 3 7 2 16 -1 19 -3 4 -6 -2 -5 -13z"/>
<path d="M441 1049 c-1 -19 26 -45 36 -35 3 3 1 6 -6 6 -6 0 -16 10 -21 23 -6
15 -9 17 -9 6z"/>
<path d="M1830 1041 c-7 -15 -7 -22 2 -27 7 -4 10 -4 6 1 -4 4 -3 16 3 26 5
11 7 19 5 19 -3 0 -10 -9 -16 -19z"/>
<path d="M661 1033 c-1 -18 -7 -23 -30 -23 -30 0 -67 -40 -57 -63 2 -7 5 -4 5
6 1 14 11 17 59 19 56 2 56 2 10 5 -57 5 -63 21 -10 25 35 3 38 5 31 28 -7 24
-7 24 -8 3z"/>
<path d="M692 1030 c0 -14 2 -19 5 -12 2 6 2 18 0 25 -3 6 -5 1 -5 -13z"/>
<path d="M1280 1040 c0 -5 5 -10 10 -10 6 0 10 5 10 10 0 6 -4 10 -10 10 -5 0
-10 -4 -10 -10z"/>
<path d="M887 1033 c-14 -13 -7 -25 8 -13 8 6 19 9 25 5 5 -3 10 -1 10 4 0 12
-33 15 -43 4z"/>
<path d="M2071 1029 c-1 -19 -39 -55 -66 -62 -19 -5 -19 -5 1 -6 25 -1 78 52
71 71 -4 9 -6 9 -6 -3z"/>
<path d="M1496 1015 c-11 -8 -15 -15 -9 -15 6 0 16 7 23 15 16 19 11 19 -14 0z"/>
<path d="M2132 1021 c4 -13 18 -16 19 -4 0 4 -5 9 -11 12 -7 2 -11 -2 -8 -8z"/>
<path d="M738 1013 c32 -4 42 -17 20 -26 -7 -3 -1 -6 15 -6 15 -1 27 -5 27
-11 0 -5 -12 -10 -27 -10 -25 -1 -26 -2 -9 -11 14 -9 22 -8 34 4 14 14 13 18
-9 41 -16 18 -34 25 -54 24 l-30 -1 33 -4z"/>
<path d="M880 980 c6 -11 15 -20 20 -20 6 0 2 9 -7 20 -10 11 -19 20 -21 20
-1 0 2 -9 8 -20z"/>
<path d="M1784 985 c-4 -8 -10 -12 -15 -9 -5 3 -9 -2 -9 -10 0 -21 3 -20 28 9
12 14 17 25 12 25 -6 0 -13 -7 -16 -15z"/>
<path d="M1831 991 c-9 -6 -7 -10 8 -14 12 -3 21 -1 21 3 0 14 -15 19 -29 11z"/>
<path d="M1925 987 c7 -17 42 -33 52 -23 4 3 0 6 -7 6 -7 0 -22 8 -32 17 -17
15 -18 15 -13 0z"/>
<path d="M268 983 c6 -2 18 -2 25 0 6 3 1 5 -13 5 -14 0 -19 -2 -12 -5z"/>
<path d="M204 948 c-17 -18 -36 -42 -43 -53 -8 -11 3 -1 23 22 21 24 45 47 54
53 9 5 12 10 6 10 -5 0 -24 -15 -40 -32z"/>
<path d="M327 954 c16 -30 16 -34 -1 -78 -10 -27 -22 -43 -28 -40 -7 4 -8 2
-4 -5 7 -11 1 -24 -49 -107 l-17 -29 21 25 c28 33 101 177 101 200 0 10 -9 28
-20 41 l-20 24 17 -31z"/>
<path d="M123 955 c0 -8 4 -15 9 -15 4 0 8 4 8 9 0 6 -4 12 -8 15 -5 3 -9 -1
-9 -9z"/>
<path d="M1198 963 c7 -3 16 -2 19 1 4 3 -2 6 -13 5 -11 0 -14 -3 -6 -6z"/>
<path d="M407 939 c4 -13 8 -18 11 -10 2 7 -1 18 -6 23 -8 8 -9 4 -5 -13z"/>
<path d="M633 943 c15 -2 39 -2 55 0 15 2 2 4 -28 4 -30 0 -43 -2 -27 -4z"/>
<path d="M1055 930 c-10 -11 -13 -20 -8 -20 6 0 14 7 17 16 5 14 9 14 22 3 13
-10 17 -10 24 2 7 10 12 11 21 2 16 -16 1 -53 -22 -53 -13 0 -18 4 -13 12 4 7
3 8 -4 4 -7 -4 -12 -14 -12 -22 0 -8 -3 -13 -8 -10 -4 2 -16 -2 -27 -10 -10
-8 -14 -14 -8 -14 7 0 15 5 18 10 4 6 10 8 15 5 5 -3 11 -1 15 5 10 16 35 11
36 -7 0 -10 7 2 16 25 14 40 14 45 0 60 -12 12 -19 13 -30 4 -9 -8 -17 -8 -23
-2 -7 7 -17 4 -29 -10z"/>
<path d="M1351 939 c-1 -8 6 -24 15 -35 15 -19 15 -19 6 1 -5 11 -12 27 -15
35 -5 13 -6 13 -6 -1z"/>
<path d="M2091 935 c0 -12 -5 -26 -11 -33 -5 -7 -3 -6 6 2 9 7 14 22 11 32 -4
17 -5 17 -6 -1z"/>
<path d="M591 924 c0 -11 3 -14 6 -6 3 7 2 16 -1 19 -3 4 -6 -2 -5 -13z"/>
<path d="M1222 918 c7 -15 15 -23 17 -17 2 6 -4 18 -13 27 -15 15 -15 15 -4
-10z"/>
<path d="M453 915 c-3 -9 -3 -18 -1 -21 3 -3 8 4 11 16 6 23 -1 27 -10 5z"/>
<path d="M773 885 c0 -27 2 -38 4 -22 2 15 2 37 0 50 -2 12 -4 0 -4 -28z"/>
<path d="M1436 905 c-14 -13 -26 -27 -26 -31 0 -4 12 4 28 18 15 14 34 28 42
31 13 5 13 6 -1 6 -9 1 -28 -10 -43 -24z"/>
<path d="M1562 914 c15 -8 34 -27 42 -42 9 -15 15 -21 16 -14 0 17 -55 72 -72
72 -7 -1 -1 -7 14 -16z"/>
<path d="M1873 923 c9 -2 25 -2 35 0 9 3 1 5 -18 5 -19 0 -27 -2 -17 -5z"/>
<path d="M1005 894 c-9 -14 -14 -31 -12 -39 3 -7 1 -17 -5 -23 -15 -15 198
-242 227 -242 26 0 61 25 76 53 8 15 2 11 -18 -10 -49 -52 -66 -46 -166 62
-49 52 -85 99 -82 105 3 5 0 7 -8 4 -18 -7 -31 11 -20 29 4 6 6 20 5 30 -2 9
1 17 6 17 5 0 12 9 15 20 7 27 3 25 -18 -6z"/>
<path d="M1952 904 c15 -8 34 -27 42 -42 9 -15 15 -21 16 -14 0 17 -55 72 -72
72 -7 -1 -1 -7 14 -16z"/>
<path d="M1160 907 c0 -5 13 -28 30 -51 16 -24 30 -49 32 -56 2 -8 18 -27 35
-43 18 -16 37 -43 42 -61 7 -24 9 -26 10 -9 1 12 -12 37 -27 55 -16 18 -50 64
-75 103 -26 38 -47 66 -47 62z"/>
<path d="M1655 901 c-6 -11 13 -26 22 -17 4 3 0 6 -8 6 -11 0 -11 2 1 10 9 6
10 10 3 10 -6 0 -14 -4 -18 -9z"/>
<path d="M1781 875 c-19 -22 -31 -47 -31 -63 0 -16 -5 -33 -10 -38 -7 -7 -7
-20 -2 -34 8 -21 9 -21 16 -5 4 11 2 22 -6 26 -9 6 -9 9 3 14 10 4 14 15 11
34 -3 21 4 37 28 65 18 20 30 36 27 36 -3 0 -19 -16 -36 -35z"/>
<path d="M2128 899 c-10 -5 -18 -15 -18 -22 0 -9 3 -8 9 1 4 7 21 17 37 22 20
6 23 8 9 9 -11 0 -28 -4 -37 -10z"/>
<path d="M602 880 c0 -14 2 -19 5 -12 2 6 2 18 0 25 -3 6 -5 1 -5 -13z"/>
<path d="M235 880 c-3 -6 1 -7 9 -4 18 7 21 14 7 14 -6 0 -13 -4 -16 -10z"/>
<path d="M510 878 c0 -4 7 -8 15 -8 8 0 15 4 15 8 0 5 -7 9 -15 9 -8 0 -15 -4
-15 -9z"/>
<path d="M850 874 c-17 -9 -20 -14 -9 -14 9 0 22 7 29 15 15 18 13 18 -20 -1z"/>
<path d="M1296 871 c-4 -5 -2 -12 3 -15 5 -4 12 -2 15 3 4 5 2 12 -3 15 -5 4
-12 2 -15 -3z"/>
<path d="M53 855 c0 -8 4 -15 9 -15 4 0 8 4 8 9 0 6 -4 12 -8 15 -5 3 -9 -1
-9 -9z"/>
<path d="M130 850 c-6 -11 -8 -20 -6 -20 3 0 10 9 16 20 6 11 8 20 6 20 -3 0
-10 -9 -16 -20z"/>
<path d="M885 859 c-4 -6 -5 -12 -2 -15 2 -3 7 2 10 11 7 17 1 20 -8 4z"/>
<path d="M1513 864 c21 -7 22 -43 1 -51 -9 -3 -20 0 -25 8 -6 9 -9 10 -9 2 0
-17 17 -25 41 -18 28 9 23 59 -6 62 -16 1 -16 1 -2 -3z"/>
<path d="M1403 825 c0 -22 2 -30 4 -17 2 12 2 30 0 40 -3 9 -5 -1 -4 -23z"/>
<path d="M612 830 c0 -14 2 -19 5 -12 2 6 2 18 0 25 -3 6 -5 1 -5 -13z"/>
<path d="M2075 839 c-10 -15 3 -25 16 -12 7 7 7 13 1 17 -6 3 -14 1 -17 -5z"/>
<path d="M1065 831 c6 -11 3 -13 -13 -9 -12 4 -20 2 -16 -3 3 -5 31 -9 62 -8
39 0 51 3 37 8 -11 5 -26 6 -33 3 -7 -2 -20 2 -29 9 -14 12 -16 12 -8 0z"/>
<path d="M250 820 c-9 -6 -10 -10 -3 -10 6 0 15 5 18 10 8 12 4 12 -15 0z"/>
<path d="M1660 820 c0 -5 5 -10 10 -10 6 0 10 5 10 10 0 6 -4 10 -10 10 -5 0
-10 -4 -10 -10z"/>
<path d="M2013 795 c0 -22 2 -30 4 -17 2 12 2 30 0 40 -3 9 -5 -1 -4 -23z"/>
<path d="M105 809 c-4 -6 -5 -12 -2 -15 2 -3 7 2 10 11 7 17 1 20 -8 4z"/>
<path d="M342 804 c-45 -32 -11 -135 45 -134 11 1 6 6 -13 14 -71 31 -56 135
18 124 32 -5 46 -33 29 -60 -13 -21 -13 -22 2 -9 21 17 22 45 1 65 -20 20 -53
20 -82 0z"/>
<path d="M534 806 c-4 -9 -4 -20 0 -23 3 -4 12 -1 18 5 9 9 9 15 0 24 -9 9
-13 7 -18 -6z"/>
<path d="M760 786 c0 -35 0 -35 -52 -39 l-53 -3 58 -2 57 -2 0 40 c0 22 -2 40
-5 40 -3 0 -5 -16 -5 -34z"/>
<path d="M2155 810 c-4 -6 -4 -14 -1 -17 3 -4 6 -1 6 5 0 7 5 12 11 12 5 0 7
-4 4 -10 -3 -5 -1 -10 5 -10 14 0 8 22 -7 27 -6 2 -14 -1 -18 -7z"/>
<path d="M1175 800 c27 -12 43 -12 25 0 -8 5 -22 9 -30 9 -10 0 -8 -3 5 -9z"/>
<path d="M1606 786 c-6 -24 -37 -50 -71 -59 -18 -4 -18 -5 1 -6 26 -1 84 50
84 73 0 23 -7 20 -14 -8z"/>
<path d="M622 780 c0 -14 2 -19 5 -12 2 6 2 18 0 25 -3 6 -5 1 -5 -13z"/>
<path d="M115 765 c11 -9 19 -20 18 -25 -2 -5 3 -7 11 -4 27 10 27 -16 1 -61
-15 -25 -31 -45 -35 -45 -20 0 -20 23 0 55 12 19 19 35 17 35 -3 0 -15 -16
-27 -35 -18 -29 -20 -38 -10 -50 19 -23 28 -18 61 35 18 29 36 48 42 44 25
-12 -38 35 -67 51 -28 15 -29 15 -11 0z"/>
<path d="M220 770 c-9 -6 -10 -10 -3 -10 6 0 15 5 18 10 8 12 4 12 -15 0z"/>
<path d="M380 760 c0 -11 4 -20 8 -20 4 0 8 9 8 20 0 11 -4 20 -8 20 -4 0 -8
-9 -8 -20z"/>
<path d="M1418 765 c13 -25 55 -49 74 -42 7 3 4 6 -8 6 -12 1 -34 13 -49 29
-21 20 -25 22 -17 7z"/>
<path d="M1790 770 c8 -5 24 -10 34 -10 26 0 18 6 -19 14 -22 5 -26 4 -15 -4z"/>
<path d="M841 743 c0 -12 2 -13 6 -5 4 10 8 10 19 1 12 -9 18 -9 27 0 9 10 8
11 -4 6 -10 -4 -20 -2 -24 4 -10 17 -25 13 -24 -6z"/>
<path d="M911 735 c0 -17 4 -36 11 -43 9 -9 7 -12 -9 -12 -11 0 -23 -7 -27
-15 -5 -13 -9 -12 -26 5 -18 18 -19 24 -8 38 9 13 7 12 -9 -2 -23 -19 -22 -36
1 -36 7 0 17 -10 23 -22 l10 -23 12 23 c6 12 21 22 31 22 21 0 26 10 11 26 -5
5 -11 23 -14 39 l-4 30 -2 -30z"/>
<path d="M1858 753 c7 -3 16 -2 19 1 4 3 -2 6 -13 5 -11 0 -14 -3 -6 -6z"/>
<path d="M2102 743 c-8 -15 -22 -23 -39 -23 -21 0 -23 -2 -13 -15 6 -8 9 -23
5 -36 -6 -18 -4 -20 13 -15 11 4 24 0 32 -9 17 -21 30 -19 30 5 0 10 9 24 20
30 25 13 26 30 2 30 -11 0 -22 11 -28 28 l-10 27 -12 -22z m42 -43 c12 0 10
-6 -7 -23 -15 -16 -26 -20 -34 -14 -7 5 -18 7 -25 4 -8 -3 -13 4 -13 19 0 13
5 24 11 24 6 0 17 7 25 16 12 14 14 14 21 -5 4 -12 14 -21 22 -21z"/>
<path d="M1935 733 c28 -9 53 -21 57 -27 6 -8 8 -8 8 1 0 6 3 20 6 30 5 14 4
15 -4 4 -8 -11 -18 -12 -55 -2 -64 16 -72 12 -12 -6z"/>
<path d="M1814 729 c-5 -9 -2 -10 9 -6 9 3 18 2 21 -4 2 -5 3 -4 2 3 -3 17
-23 21 -32 7z"/>
<path d="M1871 716 c2 -2 15 -9 29 -15 24 -11 24 -11 6 3 -16 13 -49 24 -35
12z"/>
<path d="M485 689 c-16 -10 -25 -19 -19 -19 7 0 22 9 35 20 30 24 23 24 -16
-1z"/>
<path d="M1368 676 c-2 -19 0 -32 4 -30 4 3 8 14 8 26 0 15 3 18 13 10 8 -7
18 -7 27 -2 9 6 17 5 22 -3 5 -8 8 -6 8 6 0 19 -8 21 -30 7 -10 -6 -20 -4 -31
6 -15 14 -17 12 -21 -20z"/>
<path d="M1015 691 c-3 -5 -1 -12 5 -16 5 -3 10 1 10 9 0 18 -6 21 -15 7z"/>
<path d="M1965 690 c-4 -6 -3 -10 2 -11 4 0 -1 -4 -12 -9 -16 -7 -17 -9 -3 -9
9 -1 19 -9 21 -18 3 -12 5 -8 6 9 0 14 6 28 13 30 8 3 6 7 -5 11 -9 3 -19 2
-22 -3z"/>
<path d="M616 667 c3 -10 9 -15 12 -12 3 3 0 11 -7 18 -10 9 -11 8 -5 -6z"/>
<path d="M1540 670 c-21 -7 -21 -8 -5 -9 11 0 27 4 35 9 18 11 5 11 -30 0z"/>
<path d="M1744 666 c11 -9 24 -16 30 -16 12 0 7 5 -24 19 -24 11 -24 11 -6 -3z"/>
<path d="M418 663 c6 -2 18 -2 25 0 6 3 1 5 -13 5 -14 0 -19 -2 -12 -5z"/>
<path d="M665 649 c-10 -30 -2 -32 12 -3 6 13 7 24 3 24 -5 0 -12 -9 -15 -21z"/>
<path d="M1627 664 c-8 -8 1 -24 14 -24 5 0 9 7 9 15 0 15 -12 20 -23 9z"/>
<path d="M745 651 c-6 -11 9 -23 19 -14 9 9 7 23 -3 23 -6 0 -12 -4 -16 -9z"/>
<path d="M260 629 c0 -5 3 -8 8 -6 11 5 52 -42 41 -48 -5 -4 -9 -14 -8 -23 0
-14 2 -14 6 -2 3 8 12 23 21 33 14 15 13 17 -6 17 -12 0 -26 9 -32 20 -11 21
-30 27 -30 9z"/>
<path d="M1340 630 c0 -6 7 -10 15 -10 8 0 15 2 15 4 0 2 -7 6 -15 10 -8 3
-15 1 -15 -4z"/>
<path d="M1433 623 c-34 -7 -28 -20 7 -15 16 2 27 8 24 13 -3 5 -6 8 -7 8 -1
-1 -12 -4 -24 -6z"/>
<path d="M1536 617 c3 -10 9 -15 12 -12 3 3 0 11 -7 18 -10 9 -11 8 -5 -6z"/>
<path d="M1710 620 c0 -5 7 -10 16 -10 8 0 12 5 9 10 -3 6 -10 10 -16 10 -5 0
-9 -4 -9 -10z"/>
<path d="M1858 623 c7 -3 16 -2 19 1 4 3 -2 6 -13 5 -11 0 -14 -3 -6 -6z"/>
<path d="M914 578 c-44 -46 -84 -101 -84 -114 0 -5 15 14 34 42 19 27 50 64
70 82 20 18 33 32 28 32 -4 0 -26 -19 -48 -42z"/>
<path d="M990 610 c12 -8 7 -18 -31 -57 -53 -57 -103 -123 -92 -123 4 0 20 19
35 43 15 23 44 59 65 79 l39 38 92 -92 c52 -51 91 -97 88 -104 -3 -7 -26 -15
-53 -17 l-48 -4 49 1 c87 2 82 18 -38 139 -58 59 -109 107 -113 107 -5 0 -1
-5 7 -10z"/>
<path d="M1918 607 c20 -6 36 -6 42 -1 5 5 -8 9 -33 10 l-42 1 33 -10z"/>
<path d="M235 603 c-33 -8 -38 -20 -14 -34 22 -11 23 -11 10 4 -11 15 -11 17
2 17 9 0 19 5 22 10 3 6 5 9 3 9 -2 -1 -12 -3 -23 -6z"/>
<path d="M498 603 c12 -2 30 -2 40 0 9 3 -1 5 -23 4 -22 0 -30 -2 -17 -4z"/>
<path d="M1086 602 c-3 -6 -1 -14 5 -17 15 -10 25 3 12 16 -7 7 -13 7 -17 1z"/>
<path d="M415 569 c-19 -17 -35 -39 -35 -48 0 -9 -6 -23 -12 -30 -7 -6 -13
-15 -13 -19 0 -4 -9 -20 -20 -36 l-19 -29 32 -26 c33 -28 112 -75 112 -67 0 2
-27 21 -60 41 -70 43 -74 48 -60 76 11 20 12 20 33 2 18 -15 19 -15 8 -1 -7 9
-10 21 -7 27 3 5 0 12 -6 14 -8 4 -5 8 8 12 15 5 20 12 17 26 -6 23 11 45 52
71 17 10 25 18 18 18 -7 0 -28 -14 -48 -31z"/>
<path d="M578 584 c28 -19 52 -65 53 -101 1 -18 3 -22 6 -10 3 10 2 29 -1 42
-7 28 -53 85 -69 85 -6 0 -1 -7 11 -16z"/>
<path d="M795 590 c-4 -6 -3 -16 3 -22 6 -6 12 -6 17 2 4 6 3 16 -3 22 -6 6
-12 6 -17 -2z"/>
<path d="M2049 571 c-16 -16 -29 -38 -29 -48 1 -11 6 -7 14 13 16 36 27 44 70
55 l31 7 -28 1 c-19 1 -38 -9 -58 -28z"/>
<path d="M1390 579 c0 -5 5 -7 10 -4 6 3 10 8 10 11 0 2 -4 4 -10 4 -5 0 -10
-5 -10 -11z"/>
<path d="M1760 583 c5 -2 10 -15 10 -28 0 -13 4 -26 9 -29 4 -3 5 9 2 26 -4
17 -12 33 -19 34 -7 1 -8 0 -2 -3z"/>
<path d="M2157 570 c7 -8 16 -27 22 -40 6 -17 10 -19 10 -8 1 9 -9 27 -21 40
-13 13 -18 17 -11 8z"/>
<path d="M73 565 c0 -8 4 -15 9 -15 4 0 8 7 8 15 0 8 -4 15 -8 15 -5 0 -9 -7
-9 -15z"/>
<path d="M1635 569 c-4 -6 -4 -13 -1 -16 3 -4 6 -1 6 5 0 7 7 12 15 12 8 0 15
-4 15 -10 0 -5 9 -10 20 -10 10 0 24 -8 29 -17 9 -16 10 -16 11 5 0 17 -6 22
-24 22 -14 0 -28 5 -31 10 -8 13 -32 13 -40 -1z"/>
<path d="M1216 544 c-11 -8 -16 -14 -10 -14 13 0 39 18 34 24 -3 2 -14 -2 -24
-10z"/>
<path d="M1586 535 c-9 -13 -16 -30 -16 -36 0 -8 -5 -8 -16 1 -12 11 -18 10
-32 -3 -15 -16 -14 -20 22 -56 21 -21 33 -41 28 -45 -6 -3 -13 0 -15 6 -3 7
-6 3 -6 -10 -1 -19 1 -21 18 -10 15 9 24 7 46 -10 36 -29 70 -28 100 3 26 25
36 56 11 33 -8 -7 -13 -15 -13 -18 1 -3 -2 -6 -7 -7 -5 -1 -12 -7 -16 -13 -14
-23 -66 0 -120 55 -42 43 -51 58 -42 67 9 9 20 3 47 -28 31 -34 34 -35 23 -11
-6 15 -15 27 -19 27 -4 0 -5 9 -2 20 3 11 9 20 14 20 5 0 9 6 9 14 0 8 6 17
13 19 7 4 8 6 1 6 -7 1 -19 -10 -28 -24z"/>
<path d="M230 532 c0 -20 3 -21 20 -12 12 6 31 8 43 5 20 -5 20 -5 4 5 -10 7
-25 9 -34 5 -9 -3 -20 0 -25 7 -5 9 -8 6 -8 -10z"/>
<path d="M1346 531 c43 -19 84 -63 84 -89 0 -8 3 -12 7 -8 23 22 -74 117 -118
116 -8 0 4 -9 27 -19z"/>
<path d="M1930 535 c-11 -13 -10 -14 4 -9 9 3 16 10 16 15 0 13 -6 11 -20 -6z"/>
<path d="M2104 515 c-14 -37 41 -60 67 -28 13 15 12 15 -7 3 -28 -18 -58 -6
-51 20 6 23 -1 27 -9 5z"/>
<path d="M1805 509 c4 -6 -1 -19 -11 -30 -9 -10 -12 -19 -7 -19 6 0 14 8 17
17 6 15 8 15 16 3 8 -12 10 -11 10 6 0 12 -7 25 -16 28 -9 3 -12 2 -9 -5z"/>
<path d="M749 451 c14 -27 27 -48 29 -46 5 5 -36 83 -47 89 -5 3 3 -16 18 -43z"/>
<path d="M1191 497 c2 -1 14 -11 27 -21 12 -11 22 -16 22 -13 0 10 -31 37 -42
37 -6 0 -9 -1 -7 -3z"/>
<path d="M1952 480 c0 -14 2 -19 5 -12 2 6 2 18 0 25 -3 6 -5 1 -5 -13z"/>
<path d="M147 484 c-8 -8 1 -24 14 -24 5 0 9 7 9 15 0 15 -12 20 -23 9z"/>
<path d="M417 475 c2 -5 29 -21 59 -34 31 -13 61 -30 68 -37 7 -7 17 -9 22 -6
5 4 -27 25 -72 47 -45 22 -80 36 -77 30z"/>
<path d="M954 469 c-3 -6 -2 -15 3 -20 5 -5 9 -1 9 11 0 23 -2 24 -12 9z"/>
<path d="M1740 455 c0 -9 6 -12 15 -9 8 4 15 7 15 9 0 2 -7 5 -15 9 -9 3 -15
0 -15 -9z"/>
<path d="M390 450 c0 -5 9 -14 20 -20 11 -6 20 -9 20 -8 0 2 -9 11 -20 21 -11
9 -20 13 -20 7z"/>
<path d="M830 443 c0 -6 8 -17 18 -24 16 -13 16 -13 2 6 -8 11 -16 22 -17 24
-2 2 -3 0 -3 -6z"/>
<path d="M1300 431 c-5 -11 -10 -30 -10 -44 0 -27 42 -72 62 -64 9 4 8 6 -3 6
-39 2 -61 60 -39 102 6 10 8 19 6 19 -3 0 -10 -9 -16 -19z"/>
<path d="M1367 430 c3 -11 0 -27 -7 -35 -11 -13 -10 -14 4 -9 17 7 22 49 7 58
-5 4 -7 -3 -4 -14z"/>
<path d="M1832 430 c0 -14 2 -19 5 -12 2 6 2 18 0 25 -3 6 -5 1 -5 -13z"/>
<path d="M2046 422 c10 -18 28 -41 38 -50 12 -10 8 0 -9 23 -40 56 -51 66 -29
27z"/>
<path d="M616 425 c-9 -26 -7 -32 5 -12 6 10 9 21 6 23 -2 3 -7 -2 -11 -11z"/>
<path d="M1900 420 c0 -5 5 -10 10 -10 6 0 10 5 10 10 0 6 -4 10 -10 10 -5 0
-10 -4 -10 -10z"/>
<path d="M252 390 c0 -19 2 -27 5 -17 2 9 2 25 0 35 -3 9 -5 1 -5 -18z"/>
<path d="M447 409 c7 -7 15 -10 18 -7 3 3 -2 9 -12 12 -14 6 -15 5 -6 -5z"/>
<path d="M948 413 c7 -3 16 -2 19 1 4 3 -2 6 -13 5 -11 0 -14 -3 -6 -6z"/>
<path d="M199 393 c-13 -16 -12 -17 4 -4 9 7 17 15 17 17 0 8 -8 3 -21 -13z"/>
<path d="M878 403 c6 -2 18 -2 25 0 6 3 1 5 -13 5 -14 0 -19 -2 -12 -5z"/>
<path d="M75 390 c3 -5 8 -10 11 -10 2 0 4 5 4 10 0 6 -5 10 -11 10 -5 0 -7
-4 -4 -10z"/>
<path d="M592 375 c0 -16 2 -22 5 -12 2 9 2 23 0 30 -3 6 -5 -1 -5 -18z"/>
<path d="M700 387 c14 -8 27 -12 30 -10 7 6 -23 23 -40 23 -8 0 -4 -6 10 -13z"/>
<path d="M948 393 c12 -2 30 -2 40 0 9 3 -1 5 -23 4 -22 0 -30 -2 -17 -4z"/>
<path d="M1842 385 c0 -11 4 -31 8 -45 6 -20 8 -21 8 -5 0 11 -4 31 -8 45 -6
20 -8 21 -8 5z"/>
<path d="M644 365 c-9 -13 -14 -28 -12 -33 1 -5 10 6 19 24 19 40 16 44 -7 9z"/>
<path d="M782 357 c-1 -26 -10 -46 -28 -63 -14 -15 -20 -24 -13 -22 27 9 51
54 46 89 l-4 34 -1 -38z"/>
<path d="M1033 383 c9 -2 23 -2 30 0 6 3 -1 5 -18 5 -16 0 -22 -2 -12 -5z"/>
<path d="M1425 370 c-4 -11 -18 -27 -33 -35 -15 -8 -21 -14 -14 -15 15 0 62
44 62 60 0 17 -8 11 -15 -10z"/>
<path d="M530 366 c0 -2 7 -6 15 -10 8 -3 15 -1 15 4 0 6 -7 10 -15 10 -8 0
-15 -2 -15 -4z"/>
<path d="M570 352 c0 -7 -8 -12 -17 -12 -13 0 -14 -3 -6 -8 10 -6 10 -12 -1
-28 -13 -17 -18 -18 -48 -7 -30 11 -31 11 -13 -3 11 -8 29 -13 39 -12 21 3 63
64 52 75 -3 4 -6 1 -6 -5z"/>
<path d="M990 341 c0 -6 4 -12 8 -15 5 -3 9 1 9 9 0 8 -4 15 -9 15 -4 0 -8 -4
-8 -9z"/>
<path d="M103 318 c-11 -13 -26 -34 -32 -48 -10 -21 -9 -22 1 -6 36 52 51 66
73 66 23 0 115 -69 160 -119 19 -22 19 -23 1 -56 -11 -19 -27 -42 -37 -51 -23
-21 -44 -10 -130 70 l-66 61 72 -71 c39 -39 86 -76 103 -82 18 -6 30 -7 27 -2
-8 12 35 71 46 64 5 -3 6 3 2 13 -6 16 -5 16 10 4 9 -7 14 -17 12 -22 -3 -4 3
-22 14 -40 11 -18 18 -36 15 -41 -3 -4 0 -8 5 -8 16 0 14 11 -9 48 -11 18 -18
37 -15 41 2 5 -2 14 -10 21 -8 7 -15 18 -15 24 0 6 -24 34 -52 62 -104 100
-137 113 -175 72z"/>
<path d="M907 319 c12 -12 24 -21 27 -18 2 2 -8 13 -22 23 l-27 19 22 -24z"/>
<path d="M1929 332 c9 -7 10 -11 2 -15 -7 -4 -8 -5 0 -3 15 2 13 20 -3 24 -10
3 -10 2 1 -6z"/>
<path d="M861 318 c0 -9 -4 -25 -7 -35 -5 -17 -5 -17 6 0 6 10 9 25 7 35 -4
15 -5 15 -6 0z"/>
<path d="M1980 306 c0 -13 -7 -29 -15 -36 -20 -16 -19 -30 1 -30 9 0 18 -9 21
-20 7 -26 15 -25 39 3 19 22 19 22 -1 6 -18 -14 -22 -13 -42 8 -19 20 -20 25
-8 29 8 4 15 18 15 33 1 24 2 24 14 9 7 -10 19 -18 26 -18 7 0 1 9 -13 20 -32
26 -37 25 -37 -4z"/>
<path d="M1075 310 c-4 -6 -3 -16 3 -22 6 -6 12 -6 17 2 4 6 3 16 -3 22 -6 6
-12 6 -17 -2z"/>
<path d="M1610 260 c17 -33 33 -60 35 -60 3 0 -8 27 -25 60 -17 33 -33 60 -35
60 -3 0 8 -27 25 -60z"/>
<path d="M352 296 c7 -8 15 -12 17 -11 5 6 -10 25 -20 25 -5 0 -4 -6 3 -14z"/>
<path d="M655 290 c10 -11 20 -20 23 -20 3 0 -3 9 -13 20 -10 11 -20 20 -23
20 -3 0 3 -9 13 -20z"/>
<path d="M1859 282 c-3 -20 -2 -29 4 -23 5 5 7 19 5 32 -3 20 -5 19 -9 -9z"/>
<path d="M2053 304 c3 -4 2 -15 -3 -25 -7 -12 -6 -20 1 -24 6 -4 8 -13 5 -21
-3 -8 1 -14 10 -14 15 0 15 2 1 23 -10 15 -12 29 -6 38 12 19 11 29 -3 29 -6
0 -8 -3 -5 -6z"/>
<path d="M2134 299 c-10 -17 13 -36 27 -22 12 12 4 33 -11 33 -5 0 -12 -5 -16
-11z m26 -9 c0 -5 -4 -10 -10 -10 -5 0 -10 5 -10 10 0 6 5 10 10 10 6 0 10 -4
10 -10z"/>
<path d="M1213 284 c5 -7 12 -25 17 -41 7 -23 8 -24 9 -7 1 12 -7 30 -16 41
-10 10 -14 13 -10 7z"/>
<path d="M1242 291 c2 -8 15 -21 29 -30 19 -11 21 -12 9 0 -8 8 -21 21 -29 29
-11 12 -12 12 -9 1z"/>
<path d="M698 263 c7 -3 16 -2 19 1 4 3 -2 6 -13 5 -11 0 -14 -3 -6 -6z"/>
<path d="M916 254 c-9 -8 -16 -21 -16 -27 0 -7 5 -4 11 5 5 10 17 22 27 27 9
6 12 11 5 11 -6 0 -19 -7 -27 -16z"/>
<path d="M1010 255 c46 -18 64 -17 25 0 -16 8 -37 14 -45 14 -8 0 1 -7 20 -14z"/>
<path d="M1376 244 c-9 -23 -7 -31 3 -15 8 12 12 10 22 -12 7 -16 20 -27 32
-27 18 0 18 -2 4 -24 -9 -13 -13 -33 -10 -46 5 -20 4 -21 -15 -11 -30 16 -41
13 -12 -4 36 -21 43 -18 37 12 -3 18 2 37 15 55 l19 28 -25 0 c-18 0 -30 9
-41 30 -18 34 -21 36 -29 14z"/>
<path d="M1115 212 c55 -30 59 -42 31 -105 -9 -20 -13 -36 -9 -35 5 1 19 -4
33 -11 l25 -12 -24 19 c-24 19 -24 20 -8 55 9 19 17 42 17 49 0 14 -86 68
-106 68 -5 0 14 -13 41 -28z"/>
<path d="M1530 228 c0 -4 4 -8 9 -8 6 0 12 4 15 8 3 5 -1 9 -9 9 -8 0 -15 -4
-15 -9z"/>
<path d="M1830 230 c-9 -6 -10 -10 -3 -10 6 0 15 5 18 10 8 12 4 12 -15 0z"/>
<path d="M406 218 c5 -8 1 -9 -12 -4 -14 5 -16 4 -7 -5 6 -6 16 -8 22 -5 14 9
14 26 0 26 -5 0 -7 -5 -3 -12z"/>
<path d="M502 208 c-7 -7 -12 -19 -11 -27 0 -10 4 -7 9 7 15 36 64 29 88 -13
6 -11 12 -14 12 -7 1 37 -71 67 -98 40z"/>
<path d="M800 212 c0 -5 7 -9 15 -9 8 0 15 4 15 9 0 4 -7 8 -15 8 -8 0 -15 -4
-15 -8z"/>
<path d="M986 208 c3 -5 10 -6 15 -3 13 9 11 12 -6 12 -8 0 -12 -4 -9 -9z"/>
<path d="M1780 210 c-8 -5 -10 -10 -5 -10 6 0 17 5 25 10 8 5 11 10 5 10 -5 0
-17 -5 -25 -10z"/>
<path d="M891 198 c-1 -26 60 -89 118 -121 28 -16 51 -26 51 -23 0 2 -24 18
-53 35 -59 34 -91 64 -106 101 -7 17 -10 20 -10 8z"/>
<path d="M1015 201 c-3 -5 -2 -12 3 -15 5 -3 9 1 9 9 0 17 -3 19 -12 6z"/>
<path d="M710 189 c0 -5 5 -7 10 -4 6 3 10 8 10 11 0 2 -4 4 -10 4 -5 0 -10
-5 -10 -11z"/>
<path d="M1720 185 c-14 -8 -20 -14 -15 -14 6 0 21 6 35 14 14 8 21 14 15 14
-5 0 -21 -6 -35 -14z"/>
<path d="M2160 190 c0 -5 5 -10 10 -10 6 0 10 5 10 10 0 6 -4 10 -10 10 -5 0
-10 -4 -10 -10z"/>
<path d="M1063 175 c0 -8 4 -12 9 -9 5 3 6 10 3 15 -9 13 -12 11 -12 -6z"/>
<path d="M1306 181 c-3 -5 2 -15 12 -22 15 -13 16 -12 4 3 -11 14 -10 17 10
21 22 4 22 4 1 6 -12 0 -24 -3 -27 -8z"/>
<path d="M1662 174 c10 -10 20 -16 22 -13 3 3 -5 11 -17 18 -21 13 -21 12 -5
-5z"/>
<path d="M735 168 c4 -11 18 -18 33 -18 23 0 24 -1 9 -18 -11 -12 -13 -22 -7
-32 16 -24 11 -31 -11 -20 -16 9 -25 8 -40 -6 -18 -16 -19 -16 -19 8 0 17 -8
28 -26 37 -15 6 -29 9 -32 7 -2 -3 7 -10 22 -15 18 -7 26 -18 26 -34 0 -34 10
-39 29 -15 15 18 21 19 40 9 29 -16 37 -8 23 23 -9 19 -8 27 4 36 21 18 17 30
-9 30 -13 0 -29 6 -36 13 -10 10 -11 9 -6 -5z"/>
<path d="M1845 168 c-30 -16 -66 -50 -77 -73 -5 -11 3 -5 18 14 15 18 46 42
68 52 23 10 34 19 26 18 -8 0 -24 -5 -35 -11z"/>
<path d="M1940 162 c19 -9 40 -28 47 -42 9 -17 13 -20 13 -8 0 20 -55 68 -78
68 -9 0 -1 -8 18 -18z"/>
<path d="M701 154 c0 -11 3 -14 6 -6 3 7 2 16 -1 19 -3 4 -6 -2 -5 -13z"/>
<path d="M1086 162 c-3 -5 1 -9 9 -9 8 0 12 4 9 9 -3 4 -7 8 -9 8 -2 0 -6 -4
-9 -8z"/>
<path d="M481 133 c0 -12 -11 -29 -23 -37 -12 -9 -18 -16 -12 -16 19 0 46 38
41 57 -4 15 -5 14 -6 -4z"/>
<path d="M1034 136 c1 -8 5 -18 8 -22 4 -3 5 1 4 10 -1 8 -5 18 -8 22 -4 3 -5
-1 -4 -10z"/>
<path d="M2121 129 c-1 -19 26 -45 36 -35 3 3 1 6 -6 6 -6 0 -16 10 -21 23 -6
15 -9 17 -9 6z"/>
<path d="M591 119 c-1 -17 -37 -53 -61 -62 -13 -5 -13 -6 1 -6 21 -1 73 54 66
71 -4 9 -6 9 -6 -3z"/>
<path d="M1618 103 c5 -21 7 -23 10 -9 2 10 0 22 -6 28 -6 6 -7 0 -4 -19z"/>
<path d="M1341 98 c-1 -31 10 -36 29 -13 11 13 10 14 -3 9 -10 -3 -17 1 -20
13 -3 12 -5 9 -6 -9z"/>
<path d="M82 90 c0 -14 2 -19 5 -12 2 6 2 18 0 25 -3 6 -5 1 -5 -13z"/>
<path d="M306 98 c3 -5 10 -6 15 -3 13 9 11 12 -6 12 -8 0 -12 -4 -9 -9z"/>
<path d="M861 94 c0 -11 3 -14 6 -6 3 7 2 16 -1 19 -3 4 -6 -2 -5 -13z"/>
<path d="M881 94 c0 -11 3 -14 6 -6 3 7 2 16 -1 19 -3 4 -6 -2 -5 -13z"/>
<path d="M1903 94 c-8 -21 9 -48 31 -52 19 -4 66 23 66 38 0 6 -9 1 -21 -11
-11 -11 -30 -19 -42 -17 -25 3 -35 36 -15 49 10 7 10 9 0 9 -7 0 -15 -7 -19
-16z"/>
<path d="M1233 90 c9 -6 17 -19 17 -30 0 -10 -8 -21 -17 -23 -17 -4 -17 -5 0
-6 36 -2 33 57 -4 66 -8 3 -7 0 4 -7z"/>
<path d="M1660 85 c-7 -9 -11 -17 -9 -20 3 -2 10 5 17 15 14 24 10 26 -8 5z"/>
<path d="M2105 80 c27 -12 43 -12 25 0 -8 5 -22 9 -30 9 -10 0 -8 -3 5 -9z"/>
<path d="M308 73 c7 -3 16 -2 19 1 4 3 -2 6 -13 5 -11 0 -14 -3 -6 -6z"/>
<path d="M410 71 c0 -6 4 -12 8 -15 5 -3 9 1 9 9 0 8 -4 15 -9 15 -4 0 -8 -4
-8 -9z"/>
<path d="M95 59 c-11 -16 -1 -19 13 -3 7 8 8 14 3 14 -5 0 -13 -5 -16 -11z"/>
<path d="M1106 45 c-11 -8 -15 -15 -9 -15 6 0 16 7 23 15 16 19 11 19 -14 0z"/>
<path d="M453 43 c9 -2 25 -2 35 0 9 3 1 5 -18 5 -19 0 -27 -2 -17 -5z"/>
</g>
</svg>
