<?xml version="1.0" standalone="no"?>
<!DOCTYPE svg PUBLIC "-//W3C//DTD SVG 20010904//EN"
 "http://www.w3.org/TR/2001/REC-SVG-20010904/DTD/svg10.dtd">
<svg version="1.0" xmlns="http://www.w3.org/2000/svg"
 width="2735.000000pt" height="1453.000000pt" viewBox="0 0 2735.000000 1453.000000"
 preserveAspectRatio="xMidYMid meet">

<g transform="translate(0.000000,1453.000000) scale(0.100000,-0.100000)"
fill="#000000" stroke="none">
<path d="M308 14227 c-25 -38 -48 -114 -48 -161 0 -66 35 -165 78 -221 l39
-50 -27 -40 c-78 -116 -67 -215 36 -325 l61 -65 -18 -50 c-37 -104 -16 -243
52 -341 18 -27 60 -74 92 -105 l59 -57 -12 -52 c-36 -149 27 -319 169 -458
l59 -57 -14 -55 c-38 -139 32 -295 159 -356 l33 -16 -1 -111 c0 -101 3 -118
27 -169 35 -76 100 -136 192 -182 51 -24 76 -42 76 -54 0 -34 68 -170 128
-258 33 -49 104 -136 157 -193 486 -525 946 -1282 1165 -1917 92 -266 199
-460 343 -620 l64 -71 6 -168 c4 -101 3 -175 -3 -186 -18 -33 -284 -291 -320
-309 -19 -10 -114 -44 -210 -75 -476 -156 -982 -366 -1407 -584 -196 -102
-414 -223 -409 -228 2 -3 1611 544 1991 677 56 19 59 19 40 2 -11 -10 -218
-164 -460 -342 -242 -178 -444 -327 -450 -333 -5 -5 231 112 525 261 294 149
585 291 646 316 240 98 446 140 784 161 723 45 1250 177 1849 461 l164 77 96
4 c57 2 148 -4 226 -14 l130 -18 -3 -35 c-2 -24 91 -344 293 -1003 162 -533
298 -979 301 -992 5 -19 -8 -37 -71 -102 -347 -351 -521 -832 -502 -1383 16
-483 177 -885 480 -1206 521 -551 1369 -741 2131 -477 360 124 685 365 898
663 288 405 397 984 286 1525 -44 215 -147 465 -260 631 l-55 80 101 12 c339
37 625 240 771 543 l34 71 4 -1163 c3 -1047 5 -1175 21 -1273 85 -535 313
-883 700 -1071 213 -104 406 -141 686 -132 189 6 314 28 454 81 191 73 371
200 491 350 l70 87 3 -226 2 -225 535 0 535 0 0 1810 0 1810 -535 0 -535 0 0
-957 c0 -527 -5 -1010 -9 -1073 -12 -150 -33 -234 -88 -350 -38 -78 -60 -109
-122 -171 -125 -125 -262 -179 -456 -179 -306 0 -528 160 -624 450 -49 148
-51 184 -51 1268 l0 1012 -546 0 -546 -1 -68 64 c-93 89 -182 150 -292 202
-292 138 -608 115 -932 -70 -44 -25 -80 -45 -80 -45 -1 0 -2 53 -3 118 -4 320
-158 556 -465 711 l-86 44 -45 -38 c-176 -147 -289 -442 -258 -669 9 -66 47
-194 75 -258 6 -13 3 -15 -11 -12 -10 3 -93 10 -184 17 l-166 12 -752 820
-753 820 38 5 c35 5 28 8 -102 57 -118 43 -355 115 -459 138 -20 4 -55 33
-103 85 -120 129 -203 171 -417 214 -228 47 -414 67 -675 73 l-245 6 -61 59
c-123 117 -255 331 -444 713 -65 132 -135 287 -154 345 -148 431 -487 866
-936 1198 -280 209 -1169 1065 -1584 1526 -563 626 -951 1156 -1201 1639 -80
155 -82 157 -97 134z m5649 -5883 c10 -25 -11 -49 -45 -52 -39 -4 -72 13 -72
38 0 23 13 28 68 29 31 1 44 -4 49 -15z m352 -260 c91 -8 167 -16 168 -17 1
-1 -15 -16 -35 -33 l-37 -31 -145 48 c-80 26 -139 47 -131 48 7 1 88 -6 180
-15z m355 -166 c19 -18 404 -436 857 -928 452 -492 876 -952 941 -1021 l118
-126 232 64 c128 35 234 66 236 67 11 12 24 154 25 276 0 216 -44 419 -123
567 -17 32 -28 49 -25 38 50 -158 70 -371 55 -563 -6 -75 -13 -139 -16 -142
-9 -8 -110 107 -164 190 -28 41 -65 111 -82 155 -27 70 -32 95 -36 202 -4 105
-1 131 18 195 12 40 32 93 45 118 29 57 105 160 119 160 26 0 157 -90 216
-149 119 -120 170 -251 170 -444 0 -163 -43 -334 -126 -500 l-35 -68 98 99
c218 220 442 357 666 407 114 25 293 17 402 -18 97 -32 230 -110 310 -181 l59
-52 -33 -55 c-124 -201 -309 -343 -516 -395 -96 -24 -291 -24 -405 0 -95 20
-232 66 -300 101 l-45 23 105 50 c237 114 469 183 691 204 149 14 139 21 -51
33 -282 18 -661 -76 -942 -235 -55 -32 -388 -317 -579 -497 -34 -32 -70 -43
-814 -243 -428 -116 -780 -208 -782 -206 -2 2 90 73 206 157 182 134 206 155
184 159 -24 5 -44 63 -429 1258 -222 690 -404 1260 -404 1268 0 8 11 26 25 39
36 37 86 34 129 -7z m2831 -2816 l216 -742 -38 -44 c-167 -193 -539 -615 -543
-615 -8 -1 -462 1647 -458 1660 7 22 593 505 599 494 4 -5 104 -344 224 -753z
m-796 -677 c127 -445 227 -813 223 -816 -4 -4 -366 -91 -805 -194 -557 -132
-801 -185 -806 -177 -14 22 -455 1582 -449 1587 11 11 1593 422 1600 416 4 -3
110 -370 237 -816z"/>
<path d="M6613 7825 c3 -5 181 -552 397 -1215 215 -663 395 -1208 399 -1212 4
-5 71 39 148 96 l141 105 383 106 c211 58 385 107 386 109 3 3 -1783 1945
-1839 2001 -12 11 -18 16 -15 10z m721 -925 c399 -455 493 -566 479 -572 -10
-3 -65 -20 -123 -38 -112 -34 -271 -100 -360 -149 -30 -17 -58 -31 -61 -31 -4
0 -9 12 -13 28 -3 15 -102 321 -220 680 -117 359 -210 652 -206 650 4 -2 231
-257 504 -568z"/>
<path d="M7983 9852 c-64 -97 -182 -224 -294 -317 -297 -248 -675 -421 -1149
-526 -302 -67 -588 -145 -835 -229 -126 -42 -307 -112 -302 -116 1 -1 40 -7
87 -14 127 -16 282 -48 358 -74 61 -21 71 -21 112 -9 259 79 663 159 1202 237
254 38 376 70 514 138 208 102 345 260 400 459 26 93 24 284 -4 407 -12 51
-25 99 -29 107 -6 11 -22 -5 -60 -63z"/>
<path d="M5000 7504 c-74 -23 -346 -82 -480 -104 -181 -29 -369 -48 -585 -60
-287 -16 -434 -42 -675 -122 -97 -32 -255 -107 -704 -332 -531 -267 -579 -289
-591 -273 -11 16 -18 10 -60 -55 -78 -122 -191 -364 -244 -523 -100 -302 -134
-523 -135 -860 0 -309 32 -547 110 -804 278 -917 1027 -1552 2021 -1712 186
-30 539 -37 733 -15 643 75 1163 351 1531 813 81 102 192 269 188 282 -4 9
-759 538 -777 544 -5 1 -37 -34 -72 -78 -211 -265 -482 -435 -796 -500 -275
-57 -577 -40 -835 45 -496 164 -826 540 -940 1070 -20 92 -23 135 -23 340 -1
206 2 249 22 347 63 311 195 557 407 761 208 200 451 322 745 373 145 26 391
28 530 5 360 -58 673 -240 890 -516 35 -44 67 -79 71 -78 22 9 772 535 776
545 2 6 -20 49 -50 95 -222 342 -524 612 -872 780 -109 52 -118 54 -185 32z"/>
<path d="M26772 6959 c-81 -40 -127 -95 -154 -183 -18 -60 -19 -77 -10 -127
15 -79 39 -126 90 -176 128 -125 352 -104 452 42 108 158 57 360 -112 445 -51
25 -73 30 -133 30 -60 0 -82 -5 -133 -31z m261 -37 c95 -53 143 -142 135 -252
-11 -141 -121 -242 -263 -242 -220 0 -343 251 -209 427 78 102 223 131 337 67z"/>
<path d="M26810 6695 c0 -148 1 -155 20 -155 18 0 20 7 20 65 0 62 1 65 25 65
19 0 31 -13 60 -65 30 -52 41 -65 61 -65 27 0 26 5 -23 82 -29 47 -29 52 2 66
34 15 49 52 41 96 -9 49 -45 66 -136 66 l-70 0 0 -155z m154 103 c9 -12 16
-30 16 -39 0 -28 -48 -59 -91 -59 l-39 0 0 60 0 60 49 0 c40 0 53 -4 65 -22z"/>
<path d="M16590 6379 c-696 -57 -1288 -437 -1565 -1004 -262 -537 -251 -1267
27 -1785 265 -494 740 -821 1353 -933 102 -19 156 -22 360 -21 222 0 250 2
366 27 478 101 855 357 1133 766 47 69 55 86 44 96 -25 24 -755 495 -767 495
-6 0 -11 -4 -11 -8 0 -17 -155 -175 -219 -224 -85 -64 -225 -133 -326 -159
-106 -29 -328 -31 -425 -6 -171 46 -287 112 -405 231 -184 186 -266 421 -252
716 7 146 34 248 96 375 85 171 195 283 361 370 118 61 211 85 352 92 312 16
557 -97 784 -360 l50 -58 383 250 c211 138 386 252 388 255 7 7 -81 140 -145
221 -315 395 -737 620 -1247 664 -133 12 -195 12 -335 0z"/>
<path d="M20342 6379 c-309 -27 -643 -138 -900 -297 -239 -149 -450 -363 -589
-600 -317 -538 -337 -1287 -50 -1858 410 -817 1459 -1203 2397 -882 301 103
535 251 750 475 128 132 210 247 289 401 138 272 200 545 201 882 0 257 -26
435 -96 645 -195 589 -675 1018 -1320 1179 -207 52 -476 74 -682 55z m350
-983 c151 -29 315 -112 421 -214 151 -145 248 -369 263 -608 30 -461 -220
-835 -631 -945 -110 -30 -317 -32 -425 -5 -311 77 -535 300 -622 618 -20 73
-23 105 -22 268 0 159 3 196 22 265 56 203 184 386 345 495 94 62 237 118 342
133 71 10 239 6 307 -7z"/>
<path d="M22994 6306 c-3 -7 -4 -533 -2 -1167 4 -1044 6 -1166 22 -1279 68
-475 252 -807 564 -1019 120 -81 292 -149 472 -188 122 -26 469 -26 590 0 313
68 564 216 720 426 25 33 48 60 53 61 4 0 7 -99 7 -220 l0 -220 540 0 540 0
-2 1808 -3 1807 -537 3 -538 2 0 -998 c0 -627 -4 -1029 -10 -1082 -41 -329
-196 -542 -457 -626 -74 -24 -272 -29 -363 -10 -118 25 -213 77 -301 165 -122
123 -187 273 -209 481 -6 56 -10 499 -10 1083 l0 987 -535 0 c-446 0 -537 -2
-541 -14z"/>
<path d="M19200 1570 l0 -750 430 0 430 0 0 135 0 135 -285 0 -285 0 0 175 0
175 233 2 232 3 0 130 0 130 -232 3 -233 2 0 175 0 175 280 0 280 0 0 130 0
130 -425 0 -425 0 0 -750z"/>
<path d="M22060 1934 c-102 -20 -200 -72 -250 -132 l-30 -37 0 78 0 77 -140 0
-140 0 0 -750 0 -750 140 0 140 0 0 277 0 277 36 -42 c49 -58 157 -109 259
-124 67 -9 93 -8 160 5 199 41 335 161 401 353 25 70 28 94 28 204 0 110 -4
134 -27 203 -60 174 -165 279 -337 339 -54 19 -191 31 -240 22z m156 -278 c61
-28 115 -81 145 -144 19 -39 23 -64 23 -142 0 -83 -3 -101 -26 -145 -56 -107
-151 -166 -267 -168 -126 -1 -226 55 -278 157 -22 41 -27 69 -31 143 -4 83 -2
97 22 150 31 67 64 105 122 139 83 49 197 53 290 10z"/>
<path d="M23376 1923 c-98 -30 -170 -97 -211 -200 -12 -29 -25 -56 -29 -60 -3
-3 -6 53 -6 125 l0 132 -140 0 -140 0 0 -550 0 -550 139 0 139 0 4 288 c4 271
5 290 27 347 17 43 40 76 80 116 69 68 132 92 238 93 l73 1 0 131 c0 111 -3
133 -16 138 -27 10 -107 5 -158 -11z"/>
<path d="M24080 1925 c-154 -35 -304 -151 -368 -285 -111 -234 -62 -528 114
-689 97 -89 262 -151 399 -151 136 0 303 62 392 146 l53 49 -64 68 -64 68 -48
-30 c-74 -48 -138 -65 -239 -64 -107 0 -179 24 -244 79 -34 30 -91 116 -91
139 0 3 184 5 409 5 l410 0 7 47 c25 166 -51 395 -162 493 -130 113 -333 164
-504 125z m229 -241 c34 -10 69 -30 98 -57 48 -44 67 -74 78 -124 l7 -33 -286
0 c-171 0 -286 4 -286 9 0 19 22 67 46 103 69 99 211 142 343 102z"/>
<path d="M25152 1929 c-201 -39 -316 -205 -267 -384 12 -46 29 -78 58 -111 53
-61 99 -88 225 -135 165 -63 201 -85 217 -137 11 -36 -13 -89 -49 -112 -40
-24 -133 -27 -175 -5 -33 17 -79 68 -92 103 -7 17 -14 22 -26 18 -9 -4 -53
-16 -98 -27 -112 -28 -111 -28 -96 -81 7 -24 24 -62 37 -85 113 -196 493 -231
678 -62 88 80 121 190 91 303 -31 116 -103 181 -274 246 -207 80 -231 96 -231
159 0 48 22 78 69 92 73 22 153 -13 180 -79 l12 -29 106 26 c59 15 108 32 111
39 7 22 -45 117 -88 160 -94 93 -239 131 -388 101z"/>
<path d="M26100 1930 c-25 -6 -73 -23 -107 -40 -183 -90 -230 -311 -97 -459
57 -64 102 -90 227 -135 175 -64 212 -93 210 -164 -1 -28 -9 -44 -37 -69 -32
-30 -42 -33 -96 -33 -34 0 -74 7 -89 14 -27 15 -91 80 -91 94 -1 27 -17 32
-66 18 -27 -8 -75 -21 -106 -30 -70 -20 -73 -33 -27 -124 37 -75 101 -134 178
-163 238 -90 522 -5 590 177 47 125 19 258 -71 341 -55 50 -82 64 -216 115
-151 56 -181 74 -198 114 -38 91 71 166 173 117 20 -9 47 -35 62 -58 l26 -41
105 26 c99 25 105 28 102 51 -9 81 -111 192 -209 229 -65 24 -194 34 -263 20z"/>
<path d="M20242 1888 c12 -18 95 -134 183 -258 89 -124 164 -230 168 -237 5
-7 -74 -120 -198 -286 -113 -151 -205 -277 -205 -281 0 -3 71 -6 158 -6 l159
0 124 174 c68 96 128 174 134 172 5 -1 66 -80 134 -174 l123 -172 159 0 c88 0
159 3 159 6 0 3 -92 129 -205 280 -125 168 -203 280 -198 287 4 7 79 113 168
237 88 124 171 240 183 258 l23 32 -163 0 -163 0 -37 -58 c-20 -31 -70 -105
-111 -164 l-74 -108 -112 165 -112 165 -160 0 -160 0 23 -32z"/>
</g>
</svg>
