<?xml version="1.0" standalone="no"?>
<!DOCTYPE svg PUBLIC "-//W3C//DTD SVG 20010904//EN"
 "http://www.w3.org/TR/2001/REC-SVG-20010904/DTD/svg10.dtd">
<svg version="1.0" xmlns="http://www.w3.org/2000/svg"
 width="225.000000pt" height="225.000000pt" viewBox="0 0 225.000000 225.000000"
 preserveAspectRatio="xMidYMid meet">

<g transform="translate(0.000000,225.000000) scale(0.100000,-0.100000)"
fill="#000000" stroke="none">
<path d="M888 2020 c-56 -37 -154 -140 -175 -184 -22 -47 -7 -96 38 -118 19
-9 41 -17 51 -18 23 0 130 83 176 138 72 87 77 98 62 143 -16 47 -25 55 -70
64 -29 5 -43 1 -82 -25z m72 17 c0 -2 -30 -28 -66 -58 -36 -30 -91 -84 -122
-121 -30 -37 -58 -66 -60 -64 -25 26 185 246 235 246 7 0 13 -1 13 -3z m51
-24 c8 -9 9 -14 3 -10 -7 4 -38 -24 -74 -66 -83 -95 -202 -199 -215 -186 -19
19 77 138 183 225 72 59 83 63 103 37z m22 -45 c15 -23 -4 -58 -77 -136 -68
-72 -139 -125 -163 -120 -9 2 -21 11 -27 20 -9 15 -6 21 14 35 40 27 152 138
185 182 31 43 50 48 68 19z"/>
<path d="M928 1963 c-7 -16 -28 -35 -47 -44 -20 -9 -41 -30 -50 -50 -9 -18
-26 -39 -39 -45 -36 -18 -38 -25 -3 -13 21 8 38 23 49 48 11 23 30 42 53 53
24 11 40 28 47 48 14 37 8 39 -10 3z"/>
<path d="M279 2018 c-43 -11 -75 -42 -84 -80 l-7 -28 173 -1 c164 0 172 -1
135 -15 -31 -11 -47 -12 -74 -3 -18 6 -52 8 -75 5 -60 -10 -87 -10 -127 -2
-23 4 -18 1 14 -10 38 -12 55 -13 73 -5 28 13 89 13 118 1 20 -8 20 -9 0 -9
-10 -1 -38 -20 -62 -43 l-42 -41 -45 41 c-27 25 -55 42 -68 41 -14 0 -17 -3
-8 -6 44 -14 45 -16 20 -23 -24 -8 -23 -8 7 -9 48 -2 52 -21 4 -21 -48 0 -54
-18 -17 -55 28 -28 123 -41 213 -30 78 10 101 20 109 50 3 13 10 22 15 19 15
-9 10 9 -10 43 -11 17 -30 33 -43 36 -20 3 -19 5 10 12 28 7 32 12 32 40 0 82
-130 128 -261 93z m167 -9 c26 -7 53 -22 64 -37 40 -50 34 -52 -145 -52 -91 0
-165 2 -165 5 0 4 7 19 15 34 26 52 132 75 231 50z m82 -174 l12 -25 -91 0
c-112 0 -113 19 -1 22 l77 2 -68 3 c-82 5 -81 23 2 23 52 0 59 -3 69 -25z
m-228 -50 c15 -14 18 -14 30 0 18 22 200 22 200 0 0 -39 -102 -62 -221 -50
-69 7 -109 27 -109 55 0 16 82 12 100 -5z"/>
<path d="M1752 1878 c-23 -84 -39 -154 -37 -156 6 -6 309 29 316 36 13 14 -24
110 -60 158 -36 48 -129 114 -162 114 -12 0 -25 -34 -57 -152z m93 128 c78
-33 175 -156 175 -224 0 -41 -32 -21 -46 28 -17 59 -74 125 -135 155 -34 18
-47 29 -43 40 7 18 7 18 49 1z m0 -55 c61 -37 106 -96 125 -163 8 -26 6 -28
-28 -33 -83 -13 -81 -13 -70 5 16 25 3 50 -26 50 -32 0 -40 -26 -16 -50 19
-19 19 -20 1 -20 -10 0 -39 -3 -64 -6 l-45 -6 30 108 c16 60 31 115 33 122 6
17 25 15 60 -7z m20 -171 c0 -8 -8 -16 -17 -18 -13 -2 -18 3 -18 18 0 15 5 20
18 18 9 -2 17 -10 17 -18z"/>
<path d="M1794 1916 c-10 -26 4 -48 28 -44 17 2 23 10 23 28 0 18 -6 26 -23
28 -13 2 -25 -3 -28 -12z m46 -17 c0 -25 -33 -22 -38 4 -2 12 3 17 17 17 15 0
21 -6 21 -21z"/>
<path d="M1881 1870 c-1 -9 8 -23 19 -33 11 -9 20 -13 20 -7 0 5 -6 13 -14 17
-7 4 -16 15 -19 23 -5 13 -6 13 -6 0z"/>
<path d="M1780 1814 c-34 -19 -10 -18 26 1 16 8 22 14 14 14 -8 -1 -26 -7 -40
-15z"/>
<path d="M1252 1964 c-45 -22 -52 -29 -46 -48 7 -23 22 -36 41 -36 8 0 10 -11
6 -35 -5 -30 -3 -35 20 -41 18 -4 37 1 61 16 33 20 37 20 66 5 34 -18 54 -10
65 26 5 14 16 19 42 19 35 0 35 1 29 33 -5 30 -5 31 9 13 67 -88 -109 -179
-257 -134 -22 6 -54 24 -70 40 -26 24 -30 34 -25 63 4 21 2 33 -4 30 -5 -4 -9
-21 -9 -40 0 -25 8 -40 35 -63 81 -72 249 -70 322 3 39 39 42 71 11 110 -54
69 -199 88 -296 39z m210 6 c26 -8 41 -20 52 -42 22 -43 21 -46 -15 -50 -19
-2 -36 -11 -43 -23 -17 -31 -28 -35 -58 -19 -25 13 -32 13 -69 -6 -52 -27 -73
-21 -64 20 6 25 3 31 -19 41 -14 7 -26 15 -26 18 0 19 35 52 63 60 44 13 134
13 179 1z"/>
<path d="M1318 1949 c-54 -21 -38 -62 28 -75 71 -13 137 27 102 62 -19 20 -93
27 -130 13z m101 -10 c57 -20 37 -35 -44 -34 -78 0 -95 11 -54 32 30 16 57 16
98 2z m-9 -49 c0 -5 -16 -10 -35 -10 -19 0 -35 5 -35 10 0 6 16 10 35 10 19 0
35 -4 35 -10z"/>
<path d="M1435 1530 c-49 -17 -108 -35 -130 -41 -39 -11 -39 -12 -15 -21 24
-10 24 -11 5 -18 -17 -7 -17 -9 -2 -9 10 -1 17 -9 17 -21 0 -16 -7 -20 -32
-20 -28 0 -37 -6 -55 -40 -29 -49 -29 -50 2 -50 28 0 31 -4 40 -72 l6 -48 94
0 94 0 6 48 c9 68 12 72 40 72 31 0 31 1 3 50 -23 40 -23 40 -85 40 -35 0 -63
2 -63 4 0 3 4 16 9 29 8 21 21 27 78 37 69 13 119 28 95 29 -7 1 -45 -6 -83
-15 -39 -9 -79 -14 -90 -11 -15 4 -19 1 -14 -12 3 -10 1 -29 -4 -42 -7 -21 -9
-18 -12 23 l-4 46 103 31 c56 18 102 34 102 36 0 8 -12 5 -105 -25z m-105 -90
c0 -22 -2 -40 -4 -40 -2 0 -6 18 -8 40 -2 22 0 40 4 40 5 0 8 -18 8 -40z m113
-82 c-18 -31 -23 -33 -78 -36 -52 -3 -61 0 -77 20 -10 13 -18 19 -17 13 0 -5
6 -18 13 -27 10 -14 28 -18 79 -18 62 0 66 1 87 33 l21 32 -6 -60 c-12 -123
-5 -115 -100 -115 -83 0 -83 0 -90 28 -3 15 -7 58 -9 95 l-4 67 100 0 100 0
-19 -32z m-193 -13 c0 -16 -6 -25 -15 -25 -18 0 -18 5 -5 31 14 26 20 24 20
-6z m260 -17 c0 -4 -7 -8 -15 -8 -10 0 -15 10 -15 28 1 26 1 26 15 8 8 -11 15
-23 15 -28z"/>
<path d="M898 1521 c-31 -19 -52 -44 -67 -75 -13 -25 -30 -50 -38 -55 -12 -6
-14 -17 -10 -39 7 -34 -13 -58 -53 -64 -34 -4 -37 -34 -6 -64 30 -31 66 -25
66 10 0 33 32 58 63 51 18 -5 29 -1 38 12 8 11 28 25 45 32 58 23 114 98 114
152 0 30 -44 69 -78 69 -15 0 -49 -13 -74 -29z m122 -1 c24 -24 25 -51 3 -97
-18 -39 -85 -93 -115 -93 -11 0 -22 -9 -25 -20 -7 -28 -22 -25 -60 12 -36 35
-42 55 -18 65 9 3 22 22 31 41 38 93 135 141 184 92z m-221 -237 c-13 -13 -24
-33 -24 -45 0 -31 -18 -32 -44 -4 -26 28 -21 46 13 46 13 0 31 9 41 20 10 11
22 17 27 14 5 -3 -1 -17 -13 -31z"/>
<path d="M930 1489 c0 -5 5 -7 10 -4 6 3 10 8 10 11 0 2 -4 4 -10 4 -5 0 -10
-5 -10 -11z"/>
<path d="M915 1440 c-3 -5 -1 -10 4 -10 6 0 11 5 11 10 0 6 -2 10 -4 10 -3 0
-8 -4 -11 -10z"/>
<path d="M376 1515 c-15 -8 -42 -15 -58 -15 -23 0 -40 -11 -74 -47 -50 -55
-69 -100 -61 -150 15 -90 69 -94 247 -19 101 43 127 58 134 78 12 33 -18 86
-59 108 -16 8 -36 22 -45 32 -23 25 -52 29 -84 13z m60 -10 c18 -14 18 -14 -6
-15 -14 0 -35 -3 -47 -6 -13 -4 -23 -2 -23 3 0 9 34 30 51 32 3 1 14 -6 25
-14z m-88 -23 c9 -6 6 -12 -13 -20 -39 -18 -65 -69 -65 -129 0 -38 -4 -53 -14
-53 -38 0 -52 72 -20 99 11 10 18 26 16 39 -7 46 57 88 96 64z m153 -25 c45
-30 68 -71 53 -94 -10 -16 -233 -121 -259 -122 -7 -1 -11 30 -10 78 0 71 3 82
25 106 53 57 133 71 191 32z m-274 -75 c-34 -41 -24 -97 20 -108 31 -8 30 -34
-2 -34 -28 0 -55 42 -55 85 0 35 42 117 48 92 2 -10 -3 -26 -11 -35z"/>
<path d="M415 1420 c-7 -12 2 -30 16 -30 5 0 9 9 9 20 0 21 -15 27 -25 10z"/>
<path d="M450 1380 c0 -13 5 -20 13 -17 6 2 12 10 12 17 0 7 -6 15 -12 18 -8
2 -13 -5 -13 -18z"/>
<path d="M400 1360 c0 -13 5 -20 13 -17 6 2 12 10 12 17 0 7 -6 15 -12 18 -8
2 -13 -5 -13 -18z"/>
<path d="M1755 1497 c-35 -16 -57 -40 -54 -59 1 -7 -1 -25 -5 -40 -5 -16 -5
-36 -1 -45 4 -10 8 -29 9 -42 4 -54 76 -77 216 -69 107 6 161 43 132 89 -15
24 -15 72 -1 86 16 16 4 55 -23 73 -32 20 -232 25 -273 7z m250 -12 c20 -8 38
-21 42 -30 9 -26 -29 -57 -80 -62 -40 -5 -46 -3 -52 17 -8 26 7 40 45 40 35 0
57 15 39 26 -7 4 -14 3 -17 -4 -2 -7 -16 -12 -30 -12 -50 0 -55 -10 -41 -78
10 -48 10 -67 1 -87 -22 -47 -37 -24 -38 56 0 41 -4 80 -8 87 -4 7 -22 12 -39
12 -18 0 -39 4 -46 9 -21 13 14 20 119 24 l85 3 -92 2 c-96 2 -155 -10 -136
-29 6 -6 30 -13 54 -16 49 -7 59 -16 51 -45 -4 -15 -11 -18 -33 -14 -16 4 -42
9 -59 12 -16 3 -36 15 -44 26 -35 49 20 77 152 78 59 0 105 -5 127 -15z m-213
-105 c47 0 68 -12 68 -36 0 -21 -5 -24 -40 -24 -76 0 -131 36 -116 75 5 14 9
14 35 0 17 -8 40 -15 53 -15z m238 -6 c0 -19 -8 -28 -35 -40 -52 -21 -65 -18
-65 16 0 27 3 30 33 30 17 0 39 5 47 10 20 13 20 13 20 -16z m11 -82 c-32 -59
-302 -55 -325 5 -10 24 3 33 30 23 14 -6 43 -10 65 -10 32 0 41 -4 51 -25 14
-31 45 -32 59 -2 13 29 97 59 117 41 11 -9 11 -17 3 -32z"/>
<path d="M456 993 l-6 -58 -90 -1 c-88 -2 -120 -12 -120 -38 0 -6 5 -3 11 7
13 22 39 22 78 0 26 -15 32 -16 43 -4 8 8 8 11 1 7 -14 -7 -43 3 -43 15 0 16
30 10 71 -13 32 -19 41 -20 48 -9 6 10 13 11 29 2 26 -14 42 -14 42 -1 0 5 -6
7 -14 4 -27 -10 -27 17 -2 72 36 79 31 81 -9 4 l-35 -65 7 68 c7 82 -2 90 -11
10z m-17 -72 c7 -5 9 -11 4 -14 -6 -4 -19 0 -29 8 -15 11 -16 14 -4 15 8 0 21
-4 29 -9z"/>
<path d="M1416 1020 c-93 -35 -168 -81 -185 -114 -19 -35 -6 -78 37 -121 74
-74 176 -102 221 -61 45 41 15 98 -81 155 -21 13 -38 27 -38 32 0 5 36 32 80
60 75 48 93 71 59 76 -8 1 -49 -11 -93 -27z m83 -3 c-15 -12 -52 -37 -82 -56
-31 -19 -58 -40 -61 -48 -3 -7 7 -20 22 -30 108 -66 128 -88 118 -127 -16 -63
-132 -48 -210 27 -79 75 -70 122 32 179 49 28 175 78 197 77 6 0 -2 -10 -16
-22z"/>
<path d="M1470 770 c0 -5 5 -10 11 -10 5 0 7 5 4 10 -3 6 -8 10 -11 10 -2 0
-4 -4 -4 -10z"/>
<path d="M1385 750 c3 -5 8 -10 11 -10 2 0 4 5 4 10 0 6 -5 10 -11 10 -5 0 -7
-4 -4 -10z"/>
<path d="M1425 750 c3 -5 8 -10 11 -10 2 0 4 5 4 10 0 6 -5 10 -11 10 -5 0 -7
-4 -4 -10z"/>
<path d="M1848 963 l-1 -78 -6 67 c-3 36 -9 69 -13 73 -13 13 -28 -7 -28 -38
0 -18 -4 -39 -10 -47 -7 -11 -11 -8 -20 15 -6 15 -9 36 -7 44 2 10 8 2 15 -19
l12 -35 -5 39 c-5 45 -7 48 -27 41 -9 -4 -13 -15 -11 -29 4 -17 -1 -25 -15
-28 -19 -5 -19 -7 2 -128 l21 -122 118 -1 c110 -2 118 -1 122 18 10 43 35 201
35 218 0 10 -8 17 -20 17 -16 0 -19 5 -13 30 4 23 2 30 -10 30 -21 0 -25 -9
-31 -61 l-5 -44 11 48 c13 52 34 66 23 15 -17 -79 -45 -86 -45 -12 0 37 -3 44
-20 44 -17 0 -20 -8 -23 -67 l-3 -68 -2 78 c-2 70 -4 77 -22 77 -18 0 -20 -7
-22 -77z m32 -4 c0 -44 -4 -68 -10 -64 -5 3 -10 35 -10 71 0 36 4 64 10 64 6
0 10 -30 10 -71z m-50 -12 c0 -37 -3 -48 -10 -37 -13 20 -13 103 0 95 6 -3 10
-30 10 -58z m100 8 c0 -30 -4 -55 -10 -55 -5 0 -10 25 -10 55 0 30 5 55 10 55
6 0 10 -25 10 -55z m-166 -20 c9 -24 68 -55 104 -55 42 0 99 26 113 51 10 19
39 26 39 10 0 -9 -26 -157 -35 -196 -4 -19 -12 -20 -112 -18 l-108 1 -17 89
c-10 48 -17 98 -18 111 0 25 25 30 34 7z"/>
<path d="M833 1012 c-12 -8 -143 -228 -143 -241 0 -4 6 -15 13 -25 13 -18 21
-17 178 19 90 21 167 43 171 49 4 6 8 29 8 51 0 51 -42 119 -86 140 -33 16
-120 20 -141 7z m137 -17 c16 -8 36 -25 44 -37 17 -24 21 -75 8 -95 -7 -11
-303 -86 -310 -78 -4 4 80 153 110 198 17 23 26 27 69 27 28 0 63 -7 79 -15z
m76 -163 c-13 -12 -17 8 -10 40 l9 33 3 -33 c2 -19 1 -36 -2 -40z m-21 -3 c4
-6 5 -13 2 -15 -13 -13 -303 -72 -311 -64 -5 5 -7 12 -4 16 5 4 271 70 300 73
4 1 10 -4 13 -10z"/>
<path d="M856 955 c-9 -14 -24 -25 -34 -25 -15 0 -15 -2 -2 -10 13 -9 12 -13
-5 -28 -11 -9 -21 -28 -22 -42 l-3 -25 17 28 c20 31 56 38 46 10 -5 -14 -1
-13 16 5 14 14 34 22 56 22 19 0 36 4 39 9 4 5 -11 7 -34 4 -35 -5 -39 -3 -34
11 3 9 15 16 25 16 10 0 19 5 19 11 0 5 -5 7 -12 3 -8 -5 -9 -2 -5 9 3 10 2
17 -2 17 -5 0 -11 -7 -15 -15 -3 -8 -15 -15 -27 -15 -18 0 -19 2 -9 15 7 9 11
18 8 21 -3 2 -13 -7 -22 -21z m24 -45 c-6 -11 -20 -20 -32 -20 -20 0 -21 1 -3
20 10 11 24 20 32 20 11 0 11 -4 3 -20z"/>
<path d="M220 859 c0 -30 30 -89 52 -102 10 -7 18 -22 18 -34 0 -22 4 -23 80
-23 78 0 80 1 80 25 0 13 8 29 19 34 21 12 51 69 51 100 0 20 -4 21 -150 21
-146 0 -150 -1 -150 -21z m290 -6 c0 -24 -35 -80 -58 -94 -12 -7 -17 -19 -14
-31 4 -16 -3 -18 -67 -18 -62 0 -71 2 -71 18 0 11 -9 27 -21 38 -25 22 -49 66
-49 89 0 13 20 15 140 15 127 0 140 -2 140 -17z"/>
<path d="M837 547 c-12 -13 -32 -29 -44 -36 -40 -21 -37 -49 21 -186 30 -72
58 -130 62 -130 14 0 113 250 107 270 -7 26 -89 105 -109 105 -8 0 -25 -11
-37 -23z m64 3 c26 -14 24 -33 -5 -46 -19 -9 -28 -8 -46 6 l-23 17 24 17 c28
19 25 19 50 6z m-53 -52 c7 -7 12 -22 12 -34 0 -18 -7 -23 -40 -26 -47 -4 -59
12 -35 48 17 26 44 31 63 12z m118 -23 c22 -34 14 -41 -45 -37 -54 4 -64 17
-35 46 23 24 61 20 80 -9z m-6 -57 c0 -15 -81 -210 -85 -206 -7 8 -85 198 -85
207 0 7 32 11 85 11 61 0 85 -3 85 -12z"/>
<path d="M861 398 c-1 -10 -1 -21 0 -24 0 -4 -4 -10 -9 -13 -6 -4 -4 -11 4
-19 11 -10 14 -10 15 0 0 7 4 4 9 -7 7 -17 9 -17 9 -2 1 9 7 17 14 17 8 0 7 4
-3 10 -12 8 -12 10 5 11 15 0 16 2 5 6 -8 3 -18 11 -22 17 -5 7 -8 6 -9 -4 0
-10 -3 -8 -9 5 -7 17 -9 17 -9 3z"/>
<path d="M1792 555 c-33 -18 -50 -46 -50 -80 1 -37 37 -266 44 -277 3 -4 45
-8 94 -8 l89 0 10 53 c25 124 33 191 27 225 -7 47 -47 82 -88 77 -17 -2 -47 3
-66 11 -19 7 -35 14 -36 13 0 -1 -11 -7 -24 -14z m85 -38 c-2 -6 -21 -12 -43
-12 -21 0 -49 -4 -61 -8 -15 -5 -23 -4 -23 2 0 6 5 11 10 11 6 0 10 7 10 15 0
8 9 15 19 15 11 0 22 4 25 9 8 13 68 -18 63 -32z m113 -24 c0 -6 3 -20 6 -30
3 -10 -4 -3 -16 15 -21 30 -32 37 -54 33 -5 -1 -16 1 -25 5 -12 5 -9 9 14 14
31 6 74 -14 75 -37z m-52 6 c15 1 22 -3 22 -13 0 -9 5 -16 10 -16 6 0 10 -6
10 -14 0 -8 6 -17 13 -19 6 -3 -45 -6 -115 -6 -135 -1 -144 2 -112 44 12 16
25 20 64 18 27 -1 52 2 55 8 4 5 12 6 18 2 7 -4 22 -6 35 -4z m62 -83 c0 -6
-29 -167 -35 -193 -3 -13 -13 -23 -21 -23 -14 0 -15 11 -9 83 3 45 9 90 12
101 3 11 1 16 -5 12 -5 -3 -13 -49 -17 -101 l-7 -95 -38 0 c-38 0 -39 1 -44
43 -3 23 -10 69 -15 102 l-10 60 5 -75 c3 -41 7 -87 10 -102 5 -23 2 -28 -14
-28 -16 0 -21 14 -35 100 -10 54 -17 104 -17 110 0 6 43 10 120 10 66 0 120
-2 120 -4z"/>
<path d="M1874 305 c0 -55 1 -76 3 -47 2 29 2 74 0 100 -2 26 -3 2 -3 -53z"/>
<path d="M1309 522 c-13 -11 -36 -22 -51 -26 -29 -7 -58 -50 -58 -85 0 -11 11
-32 24 -48 12 -15 31 -52 40 -81 20 -61 37 -72 103 -72 82 0 90 5 113 76 12
35 27 67 34 71 22 13 37 53 30 76 -8 29 -44 67 -62 67 -7 0 -25 9 -39 20 -33
26 -102 27 -134 2z m123 -9 c11 -10 34 -22 51 -28 44 -14 66 -59 45 -94 -12
-22 -21 -26 -60 -26 -26 0 -53 -6 -59 -12 -17 -17 -54 -16 -71 1 -8 7 -33 13
-58 12 -38 -1 -46 3 -59 27 -14 24 -14 30 -1 54 9 15 29 32 45 38 16 5 38 18
47 28 24 23 95 23 120 0z m-74 -183 c7 0 13 -18 14 -42 l1 -43 4 43 c3 26 9
42 17 42 8 0 19 6 25 14 10 11 19 12 41 4 l29 -10 -20 -51 c-25 -62 -31 -67
-89 -67 -74 0 -87 7 -104 58 -17 49 -20 76 -8 69 4 -3 16 -1 27 3 12 5 26 2
36 -6 8 -8 21 -14 27 -14z"/>
<path d="M1313 295 c6 -19 12 -33 14 -32 6 7 -9 67 -17 67 -5 0 -3 -16 3 -35z"/>
<path d="M1427 323 c-2 -4 -7 -24 -11 -43 l-6 -35 15 39 c13 35 15 61 2 39z"/>
<path d="M236 461 c-51 -52 -54 -61 -29 -91 25 -29 116 -29 140 0 21 24 32 25
47 5 22 -31 136 -32 136 -1 0 8 7 16 15 20 18 7 20 35 3 41 -7 3 -70 20 -140
39 l-126 34 -46 -47z m162 5 c52 -14 96 -26 98 -29 2 -2 -58 -7 -133 -10 -76
-3 -139 -4 -141 -2 -6 5 61 64 73 65 6 0 52 -11 103 -24z m147 -55 c-15 -14
-345 -26 -345 -13 0 12 62 17 240 20 67 1 110 -2 105 -7z m-27 -33 c-7 -19
-79 -22 -103 -4 -19 14 -15 15 43 16 47 0 63 -3 60 -12z m-183 -8 c-3 -5 -28
-10 -55 -10 -27 0 -52 5 -55 10 -4 6 17 10 55 10 38 0 59 -4 55 -10z"/>
<path d="M506 343 c-7 -7 -76 -11 -246 -14 -60 -1 -62 -2 -30 -11 19 -5 50 -6
70 -3 19 4 70 7 112 6 47 0 89 5 110 14 25 11 28 14 12 15 -11 0 -24 -3 -28
-7z"/>
<path d="M400 299 c-74 -3 -152 -7 -172 -8 -32 -1 -38 -5 -38 -22 0 -21 1 -21
178 -14 97 4 181 11 186 15 10 10 1 41 -11 38 -4 -1 -69 -5 -143 -9z m145 -18
c-15 -13 -345 -25 -345 -12 0 11 60 16 235 19 69 1 115 -2 110 -7z"/>
</g>
</svg>
