<?xml version="1.0" standalone="no"?>
<!DOCTYPE svg PUBLIC "-//W3C//DTD SVG 20010904//EN"
 "http://www.w3.org/TR/2001/REC-SVG-20010904/DTD/svg10.dtd">
<svg version="1.0" xmlns="http://www.w3.org/2000/svg"
 width="200.000000pt" height="200.000000pt" viewBox="0 0 200.000000 200.000000"
 preserveAspectRatio="xMidYMid meet">

<g transform="translate(0.000000,200.000000) scale(0.100000,-0.100000)"
fill="#000000" stroke="none">
<path d="M181 1882 c-99 -50 -105 -177 -12 -239 58 -39 126 -27 181 32 21 22
25 37 25 85 0 48 -4 63 -25 85 -28 31 -78 55 -112 55 -13 0 -38 -8 -57 -18z
m135 -17 c52 -34 68 -117 34 -172 -53 -87 -187 -80 -226 12 -19 46 -18 73 4
114 36 67 124 88 188 46z"/>
<path d="M210 1859 c0 -17 -3 -19 -14 -10 -23 19 -66 -41 -66 -91 0 -32 7 -47
34 -74 28 -28 42 -34 76 -34 34 0 48 6 76 34 27 27 34 42 34 74 0 65 -69 132
-105 102 -12 -10 -15 -9 -15 4 0 9 -4 16 -10 16 -5 0 -10 -10 -10 -21z m108
-35 c55 -61 7 -164 -76 -164 -24 0 -45 6 -52 16 -11 13 -9 20 18 47 l32 31 37
-34 38 -35 -35 38 c-30 33 -33 40 -20 50 21 17 59 65 39 50 -12 -10 -18 -10
-27 -1 -9 9 -12 9 -12 0 0 -7 6 -12 12 -12 7 0 3 -10 -10 -22 l-22 -22 -28 27
c-26 25 -30 26 -42 12 -18 -22 5 -49 30 -35 34 18 33 -10 -1 -46 l-33 -34 -13
22 c-7 13 -12 35 -13 50 0 30 44 86 55 68 4 -7 16 -4 33 9 32 24 58 19 90 -15z
m-118 -32 c0 -13 -12 -22 -22 -16 -10 6 -1 24 13 24 5 0 9 -4 9 -8z"/>
<path d="M222 1808 c6 -18 28 -21 28 -4 0 9 -7 16 -16 16 -9 0 -14 -5 -12 -12z"/>
<path d="M295 1781 c-8 -15 3 -31 21 -31 9 0 14 7 12 17 -4 20 -24 28 -33 14z
m25 -11 c0 -5 -5 -10 -11 -10 -5 0 -7 5 -4 10 3 6 8 10 11 10 2 0 4 -4 4 -10z"/>
<path d="M160 1730 c0 -5 5 -10 10 -10 6 0 10 5 10 10 0 6 -4 10 -10 10 -5 0
-10 -4 -10 -10z"/>
<path d="M295 1730 c3 -5 11 -10 16 -10 6 0 7 5 4 10 -3 6 -11 10 -16 10 -6 0
-7 -4 -4 -10z"/>
<path d="M225 1720 c-3 -6 1 -7 9 -4 18 7 21 14 7 14 -6 0 -13 -4 -16 -10z"/>
<path d="M235 1700 c-7 -12 2 -30 16 -30 12 0 12 27 0 35 -5 3 -12 1 -16 -5z"/>
<path d="M1433 1868 c-17 -18 -33 -42 -35 -53 -5 -28 -31 -25 -33 4 -3 33 -51
73 -84 69 -60 -7 -23 -118 40 -118 16 0 29 -4 29 -9 0 -4 -25 -31 -55 -59 -58
-54 -65 -69 -38 -79 11 -5 31 10 68 51 l52 58 53 -56 c29 -31 59 -56 66 -56
32 0 22 26 -31 80 -55 56 -63 80 -26 80 20 0 88 66 78 76 -4 4 -15 1 -24 -7
-16 -13 -17 -12 -4 4 18 23 7 34 -16 16 -15 -11 -16 -11 -5 1 6 8 12 18 12 22
0 16 -17 7 -47 -24z m-90 -20 c9 -11 17 -24 17 -29 0 -5 -8 -6 -17 -3 -10 3
24 -35 76 -84 52 -49 90 -92 84 -95 -5 -3 -47 32 -93 78 -46 47 -87 80 -90 74
-18 -29 -70 42 -56 77 8 21 54 11 79 -18z m114 -7 c17 13 17 13 4 -4 -12 -15
-12 -20 -2 -27 9 -5 10 -10 2 -14 -6 -4 -15 -5 -20 -1 -5 3 -17 -2 -26 -11 -9
-9 -19 -14 -22 -10 -4 3 2 12 12 20 10 7 15 18 11 24 -4 7 -4 17 0 23 4 8 9 7
14 -2 7 -10 12 -10 27 2z m-87 -99 c0 -14 -109 -116 -117 -109 -4 4 18 32 47
62 52 52 70 65 70 47z"/>
<path d="M1713 1868 c1 -20 5 -34 9 -30 4 4 3 21 -1 37 -9 30 -9 30 -8 -7z"/>
<path d="M1753 1868 c1 -21 5 -38 10 -38 9 0 8 30 -3 55 -7 15 -8 11 -7 -17z"/>
<path d="M581 1823 c-25 -52 -29 -68 -19 -74 12 -8 5 -13 -14 -11 -3 1 -14
-15 -23 -35 -17 -36 -17 -36 6 -54 48 -37 131 -37 178 0 l25 19 -54 111 c-29
61 -56 111 -60 111 -3 0 -20 -30 -39 -67z m43 23 c-4 -19 0 -28 20 -41 14 -9
33 -37 42 -62 17 -44 17 -46 -1 -59 -10 -8 -29 -14 -41 -14 -13 0 -26 -6 -31
-12 -5 -9 -9 -3 -13 16 -7 39 -30 47 -30 10 0 -27 -1 -27 -15 -8 -20 27 -18
41 6 47 16 4 19 11 14 26 -3 11 3 41 16 70 22 53 44 70 33 27z m26 -27 c0 -6
-4 -7 -10 -4 -5 3 -10 11 -10 16 0 6 5 7 10 4 6 -3 10 -11 10 -16z m-72 -153
c10 17 11 16 12 -9 0 -26 -2 -27 -22 -16 -37 19 -48 31 -41 41 3 6 13 1 23
-12 17 -22 18 -22 28 -4z m132 -1 c-15 -18 -75 -38 -97 -32 -14 3 -11 7 12 15
17 7 41 18 55 25 29 16 46 11 30 -8z"/>
<path d="M592 1778 c6 -18 28 -21 28 -4 0 9 -7 16 -16 16 -9 0 -14 -5 -12 -12z"/>
<path d="M620 1735 c-18 -21 -5 -47 22 -43 26 3 37 36 16 49 -18 12 -24 11
-38 -6z m38 -18 c2 -10 -3 -17 -12 -17 -18 0 -29 16 -21 31 9 14 29 6 33 -14z"/>
<path d="M1796 1865 c8 -37 14 -45 14 -19 0 10 -5 26 -10 34 -8 11 -9 7 -4
-15z"/>
<path d="M905 1835 c-14 -13 -25 -31 -25 -40 0 -8 -4 -15 -9 -15 -17 0 -6 -55
17 -88 23 -32 23 -32 112 -32 89 0 89 0 112 32 23 33 34 88 17 88 -5 0 -9 7
-9 15 0 9 -11 27 -25 40 -21 22 -33 25 -95 25 -62 0 -74 -3 -95 -25z m126 3
c0 -10 2 -10 6 0 2 6 11 12 18 12 17 0 57 -49 49 -61 -3 -5 -50 -9 -104 -9
-54 0 -101 4 -104 9 -3 5 4 20 15 35 17 22 28 26 70 26 32 0 49 -4 50 -12z
m37 -75 c-38 -2 -98 -2 -135 0 -38 2 -7 3 67 3 74 0 105 -1 68 -3z m-32 -20
c-3 -3 -23 -6 -43 -5 -30 0 -34 -2 -18 -8 15 -6 9 -9 -25 -9 -34 0 -40 3 -25
9 17 7 14 9 -13 9 -20 1 -31 -3 -27 -9 3 -5 1 -10 -4 -10 -12 0 -15 13 -5 22
3 3 41 6 86 6 44 1 78 -2 74 -5z m79 -3 c-4 -6 -16 -8 -27 -4 -14 4 -18 2 -14
-5 5 -7 -4 -11 -26 -11 l-33 0 25 14 c30 17 84 21 75 6z m-5 -34 c0 -3 -7 -12
-16 -20 -11 -12 -36 -16 -94 -16 -58 0 -83 4 -94 16 -9 8 -16 17 -16 20 0 2
50 4 110 4 61 0 110 -2 110 -4z"/>
<path d="M1680 1742 c0 -37 5 -73 11 -79 9 -9 2 -11 -25 -10 -20 1 -36 -2 -36
-6 0 -4 0 -11 0 -17 0 -17 245 -13 259 4 15 18 4 24 -36 21 -30 -2 -32 -1 -21
19 6 11 19 29 29 39 25 24 24 39 -6 71 -22 24 -31 26 -100 26 l-75 0 0 -68z
m150 -2 c0 -52 -3 -62 -24 -75 -27 -18 -77 -15 -102 5 -9 8 -14 32 -14 71 l0
59 70 0 70 0 0 -60z m37 -4 c-11 -27 -27 -17 -27 16 0 30 1 31 16 16 9 -9 14
-24 11 -32z m11 -101 c3 -3 -51 -4 -119 -4 -72 1 -107 4 -84 8 45 7 195 4 203
-4z"/>
<path d="M1800 1685 c-7 -9 -8 -15 -2 -15 5 0 12 7 16 15 3 8 4 15 2 15 -2 0
-9 -7 -16 -15z"/>
<path d="M116 1512 c-3 -3 -6 -56 -6 -118 l0 -112 64 -22 65 -21 63 19 63 20
3 121 3 122 -28 -7 c-15 -4 -45 -13 -65 -20 -31 -11 -45 -10 -97 6 -33 10 -62
15 -65 12z m78 -25 l40 -12 2 -105 c1 -57 1 -107 -2 -111 -5 -9 -97 22 -106
35 -4 6 -8 55 -8 109 0 108 -2 107 74 84z m164 -94 l-3 -106 -52 -18 -53 -18
0 114 0 113 38 10 c76 20 73 24 70 -95z"/>
<path d="M140 1446 c0 -18 8 -27 31 -35 45 -15 49 -14 49 14 0 18 -7 28 -26
35 -40 16 -54 12 -54 -14z m51 4 c28 -16 23 -32 -8 -28 -17 2 -29 10 -31 21
-4 19 10 22 39 7z"/>
<path d="M150 1391 c0 -10 50 -25 57 -18 2 3 -10 9 -26 15 -17 6 -31 7 -31 3z"/>
<path d="M150 1367 c0 -3 15 -10 32 -16 18 -6 28 -7 23 -2 -12 10 -55 25 -55
18z"/>
<path d="M165 1330 c11 -5 27 -9 35 -9 13 -1 13 0 0 9 -8 5 -24 9 -35 9 l-20
0 20 -9z"/>
<path d="M150 1317 c0 -3 15 -10 32 -16 18 -6 28 -7 23 -2 -12 10 -55 25 -55
18z"/>
<path d="M295 1384 l-30 -14 30 6 c31 6 41 11 34 18 -2 2 -17 -2 -34 -10z"/>
<path d="M293 1360 c-35 -14 -27 -20 10 -8 17 6 34 13 36 14 8 7 -24 3 -46 -6z"/>
<path d="M285 1330 c-13 -5 -14 -9 -5 -9 8 0 24 4 35 9 13 5 14 9 5 9 -8 0
-24 -4 -35 -9z"/>
<path d="M293 1310 c-13 -5 -23 -11 -23 -14 0 -6 60 11 68 19 8 8 -20 5 -45
-5z"/>
<path d="M545 1474 c5 -39 4 -44 -13 -44 -18 0 -18 -3 -6 -72 22 -117 23 -118
98 -118 l65 0 9 38 c5 20 14 61 19 91 9 49 8 54 -9 59 -16 4 -18 11 -13 46 l7
42 -41 1 c-30 1 -41 -2 -41 -13 0 -7 -4 -14 -10 -14 -5 0 -10 6 -10 13 0 7
-13 12 -31 13 l-31 1 7 -43z m29 -43 c-7 -8 -11 4 -17 44 l-6 40 13 -40 c7
-22 12 -42 10 -44z m110 35 c-3 -21 -9 -35 -11 -32 -3 3 -2 21 1 42 4 20 10
34 12 31 3 -3 2 -21 -2 -41z m-85 -19 c-1 -40 -2 -40 -9 -12 -11 44 -11 67 0
60 6 -3 9 -25 9 -48z m52 10 c-6 -6 -11 -22 -12 -36 l-1 -26 -8 25 c-4 14 -8
34 -9 45 -1 16 1 17 9 5 5 -8 10 -12 11 -7 2 9 6 25 9 35 1 4 4 -1 7 -12 3
-10 0 -23 -6 -29z m-91 -77 c0 -43 -14 -54 -24 -17 -10 37 -7 57 9 57 11 0 15
-11 15 -40z m17 -12 c-2 -13 -4 -5 -4 17 -1 22 1 32 4 23 2 -10 2 -28 0 -40z
m40 30 c-3 -8 -6 -5 -6 6 -1 11 2 17 5 13 3 -3 4 -12 1 -19z m50 -30 c-2 -13
-4 -5 -4 17 -1 22 1 32 4 23 2 -10 2 -28 0 -40z m43 35 c0 -29 -12 -63 -21
-63 -5 0 -9 18 -9 40 0 29 4 40 15 40 8 0 15 -8 15 -17z m-100 -39 c0 -8 -4
-14 -10 -14 -5 0 -10 9 -10 21 0 11 5 17 10 14 6 -3 10 -13 10 -21z m40 4 c0
-16 -3 -19 -11 -11 -6 6 -8 16 -5 22 11 17 16 13 16 -11z m-15 -28 c3 -5 19
-10 36 -10 16 0 29 -4 29 -10 0 -5 -3 -10 -7 -11 -5 0 -19 -3 -33 -5 -30 -6
-46 -6 -84 -1 -41 4 -46 27 -7 27 16 0 33 5 36 10 3 6 10 10 15 10 5 0 12 -4
15 -10z m-65 -67 c-1 -24 -2 -26 -11 -10 -5 9 -7 22 -4 27 10 17 15 11 15 -17z
m120 10 c0 -5 -5 -15 -10 -23 -8 -12 -10 -11 -10 8 0 12 5 22 10 22 6 0 10 -3
10 -7z m-80 -19 c0 -8 -5 -12 -10 -9 -6 4 -8 11 -5 16 9 14 15 11 15 -7z m40
7 c0 -6 -4 -13 -10 -16 -5 -3 -10 1 -10 9 0 9 5 16 10 16 6 0 10 -4 10 -9z"/>
<path d="M933 1499 c3 -12 3 -18 0 -15 -4 3 -15 -1 -25 -11 -14 -13 -18 -31
-18 -86 0 -55 -4 -73 -17 -83 -17 -12 -16 -15 9 -39 25 -23 35 -25 115 -25 77
0 92 3 117 23 33 26 28 47 -10 47 -21 0 -23 2 -12 19 10 16 8 26 -7 55 -17 31
-22 34 -49 29 -48 -9 -50 -9 -51 2 -2 28 -17 65 -25 65 -6 0 -10 9 -10 20 0
11 -5 20 -11 20 -7 0 -9 -9 -6 -21z m39 -71 c4 -62 -7 -78 -48 -70 -21 4 -24
10 -24 48 0 44 0 44 35 44 29 0 35 -4 37 -22z m118 -74 c0 -5 -7 -19 -15 -30
-13 -17 -14 -17 -15 -2 0 9 -4 19 -9 22 -5 4 -7 -2 -4 -13 3 -12 -2 -20 -14
-23 -28 -7 -63 9 -63 29 1 28 35 67 53 60 9 -3 19 -1 23 5 7 11 43 -28 44 -48z
m-130 -12 c0 -2 -7 -11 -16 -19 -13 -14 -17 -14 -25 -2 -14 22 -11 27 16 25
14 0 25 -2 25 -4z m10 -32 c0 -5 -4 -10 -10 -10 -5 0 -10 5 -10 10 0 6 5 10
10 10 6 0 10 -4 10 -10z m154 -18 c22 -12 -28 -22 -121 -22 -103 0 -137 5
-128 20 6 9 234 11 249 2z m-76 -39 c-27 -2 -69 -2 -95 0 -27 2 -5 3 47 3 52
0 74 -1 48 -3z"/>
<path d="M1050 1381 c0 -6 4 -13 10 -16 6 -3 7 1 4 9 -7 18 -14 21 -14 7z"/>
<path d="M1001 1364 c0 -11 3 -14 6 -6 3 7 2 16 -1 19 -3 4 -6 -2 -5 -13z"/>
<path d="M1339 1501 c-19 -15 -23 -30 -28 -105 l-6 -86 27 0 c23 0 27 -5 30
-32 2 -21 8 -33 18 -33 10 0 16 12 18 33 3 27 7 32 29 32 l26 0 -5 87 c-4 74
-8 89 -27 105 -29 23 -53 23 -82 -1z m74 -3 c20 -16 36 -118 18 -118 -6 0 -16
-10 -21 -22 -7 -19 -9 -16 -9 20 -1 30 -5 42 -16 42 -10 0 -15 -11 -15 -35 l0
-34 -25 23 c-27 25 -31 49 -14 93 16 43 49 56 82 31z m-7 -168 c8 0 14 6 14
14 0 8 5 18 10 21 6 4 10 -5 10 -19 0 -25 -2 -26 -60 -26 l-60 0 0 32 0 31 23
-21 c27 -26 36 -21 39 22 1 23 3 20 5 -11 3 -29 9 -43 19 -43z m-16 -50 c0
-16 -4 -30 -10 -30 -5 0 -10 14 -10 30 0 17 5 30 10 30 6 0 10 -13 10 -30z"/>
<path d="M1390 1496 c0 -2 8 -10 18 -17 15 -13 16 -12 3 4 -13 16 -21 21 -21
13z"/>
<path d="M1646 1447 c-33 -33 -35 -92 -5 -131 26 -33 82 -35 139 -6 22 11 53
20 69 20 35 0 54 26 49 67 -5 44 -43 63 -140 70 -83 6 -87 5 -112 -20z m114 3
l-35 -7 36 -2 c39 -1 99 -19 99 -30 0 -3 -9 -12 -20 -19 -29 -18 -14 -35 22
-28 26 5 29 4 18 -9 -7 -8 -26 -15 -42 -15 -16 0 -46 -9 -68 -20 -60 -31 -111
-26 -131 12 -11 20 -10 20 12 4 34 -23 78 -20 124 10 30 19 34 23 15 19 -24
-6 -24 -5 -6 9 11 9 24 16 30 16 5 0 7 3 3 6 -3 4 -22 -4 -41 -15 -24 -15 -48
-21 -73 -19 -33 3 -38 7 -41 30 -2 18 4 31 20 42 15 11 18 16 7 16 -23 0 -39
-21 -39 -51 0 -44 33 -60 95 -46 28 7 29 6 11 -8 -28 -21 -69 -19 -100 6 -31
25 -33 55 -5 85 17 18 31 22 82 22 52 -1 56 -2 27 -8z m120 -26 c19 -19 2 -48
-31 -52 l-24 -2 23 16 c30 22 28 32 -10 50 l-33 15 30 -6 c17 -4 37 -13 45
-21z"/>
<path d="M1685 1420 c-4 -7 -3 -16 3 -22 14 -14 47 -6 47 12 0 18 -40 26 -50
10z m37 -12 c-9 -9 -15 -9 -24 0 -9 9 -7 12 12 12 19 0 21 -3 12 -12z"/>
<path d="M185 1128 c-25 -14 -35 -28 -35 -50 0 -9 -12 -34 -26 -55 -41 -61
-24 -122 44 -150 27 -11 37 -11 66 1 19 8 42 26 51 40 10 14 24 26 32 26 24 0
63 47 63 78 0 34 -31 70 -68 78 -15 3 -43 14 -63 25 -43 22 -38 22 -64 7z
m120 -43 c77 -23 88 -108 16 -131 -18 -6 -38 -19 -43 -30 -16 -30 -39 -44 -74
-44 -46 0 -63 9 -79 41 -20 38 -19 62 6 93 11 14 25 42 30 62 13 44 44 59 79
36 13 -8 43 -21 65 -27z"/>
<path d="M320 1061 c0 -6 4 -11 9 -11 5 0 12 -8 14 -17 4 -15 5 -15 6 -2 0 9
-6 22 -14 29 -10 9 -15 9 -15 1z"/>
<path d="M160 991 c-16 -31 -12 -49 15 -67 23 -15 27 -15 50 0 27 18 33 54 13
74 -19 19 -66 15 -78 -7z m74 -7 c10 -27 7 -43 -13 -54 -11 -5 -26 -7 -35 -4
-21 8 -30 42 -16 59 16 20 56 19 64 -1z"/>
<path d="M175 979 c-11 -17 1 -21 15 -4 8 9 8 15 2 15 -6 0 -14 -5 -17 -11z"/>
<path d="M646 1124 c-4 -9 -4 -19 -1 -22 2 -3 7 3 11 12 4 9 4 19 1 22 -2 3
-7 -3 -11 -12z"/>
<path d="M670 1115 c-18 -19 -27 -22 -42 -14 -10 6 -28 7 -38 4 -23 -7 -44
-41 -35 -55 3 -6 -1 -10 -9 -10 -8 0 -18 -5 -21 -10 -4 -6 -1 -9 7 -8 9 2 14
-12 16 -47 1 -27 4 -65 7 -82 6 -33 6 -33 65 -33 68 0 67 -1 73 105 2 40 7 59
15 58 7 -2 12 2 12 7 0 6 -6 10 -12 10 -18 1 -50 47 -38 55 10 6 34 45 27 45
-2 0 -14 -11 -27 -25z m-45 -25 c3 -5 0 -11 -7 -12 -7 0 -17 -2 -23 -2 -5 -1
-16 -5 -22 -9 -18 -11 -16 -2 3 17 18 18 40 21 49 6z m53 -45 c2 -18 2 -18 -8
-2 -6 9 -17 17 -25 17 -8 0 -19 -8 -24 -17 -9 -15 -10 -16 -11 -2 0 23 11 30
40 27 16 -2 26 -10 28 -23z m-93 5 c-3 -5 -1 -10 6 -10 7 0 10 -3 6 -6 -9 -9
-28 6 -22 17 4 5 8 9 11 9 3 0 2 -4 -1 -10z m75 -10 c0 -5 -7 -10 -15 -10 -8
0 -15 5 -15 10 0 6 7 10 15 10 8 0 15 -4 15 -10z m0 -35 c-7 -8 -25 -15 -40
-15 -15 0 -33 7 -40 15 -11 13 -5 15 40 15 45 0 51 -2 40 -15z m-10 -18 l30
11 0 -48 c0 -73 -5 -80 -60 -80 -41 0 -49 3 -54 23 -13 48 -7 67 19 67 22 0
25 -4 25 -36 0 -28 -3 -35 -15 -30 -8 3 -15 1 -15 -4 0 -16 37 -11 44 5 3 8 3
29 -1 45 -4 25 -10 30 -34 30 -18 0 -29 5 -29 14 0 12 5 12 30 3 22 -8 38 -8
60 0z"/>
<path d="M1325 1132 c-6 -4 -21 -20 -33 -36 -16 -21 -19 -33 -12 -46 6 -10 11
-40 12 -67 l1 -48 7 50 7 50 1 -47 c1 -27 7 -48 13 -48 7 0 10 18 7 50 -3 44
4 60 25 60 1 0 1 -31 0 -70 -2 -39 2 -70 7 -70 5 0 9 15 8 34 -1 20 6 41 15
50 15 15 16 13 12 -29 -3 -27 -1 -45 5 -45 5 0 10 25 10 56 0 34 -4 53 -10 49
-5 -3 -10 -1 -10 4 0 6 6 11 14 11 10 0 15 -16 18 -59 5 -91 5 -91 -63 -91
-54 0 -59 2 -60 23 0 12 -3 16 -6 9 -3 -8 0 -25 8 -38 10 -20 20 -24 60 -24
43 0 49 3 61 30 7 17 21 33 31 36 42 13 41 81 -2 103 -12 7 -17 18 -14 33 4
19 -4 29 -37 51 -43 28 -58 32 -75 19z m42 -13 c6 -6 22 -17 35 -23 29 -15 30
-40 1 -44 -17 -3 -23 -11 -24 -30 l-2 -27 -4 28 c-5 33 -27 45 -49 26 -12 -10
-18 -10 -30 3 -14 14 -14 17 1 32 9 9 22 13 28 9 6 -4 8 0 4 9 -10 27 18 39
40 17z m87 -105 c29 -11 15 -84 -16 -84 -4 0 -8 20 -8 45 0 48 0 48 24 39z
m-71 -141 c-13 -2 -33 -2 -45 0 -13 2 -3 4 22 4 25 0 35 -2 23 -4z"/>
<path d="M1005 1085 c-22 -13 -48 -25 -57 -25 -23 0 -48 -38 -48 -72 0 -18 -5
-28 -14 -28 -28 0 -28 -23 0 -46 25 -20 40 -23 116 -24 79 0 89 2 114 25 26
24 26 26 10 43 -9 9 -25 28 -35 42 -11 15 -30 25 -47 25 -42 2 -40 19 6 40 23
10 43 22 46 27 3 5 -20 -3 -50 -16 -31 -14 -56 -21 -56 -15 0 5 3 9 8 9 8 0
60 39 52 40 -3 0 -23 -11 -45 -25z m-47 -47 c-16 -5 -28 -14 -28 -19 0 -6 9
-5 21 1 11 7 24 9 27 5 10 -9 -21 -26 -40 -21 -9 2 -19 -1 -22 -8 -2 -6 -5 -3
-5 6 -1 23 26 48 52 47 19 0 19 -2 -5 -11z m48 -23 c-4 -10 4 -12 31 -8 28 5
39 2 49 -12 16 -22 18 -35 5 -35 -5 0 -11 9 -14 20 -3 13 -14 20 -30 20 -21 0
-24 -4 -20 -22 l5 -23 -16 23 c-10 12 -23 22 -29 22 -7 0 -4 -7 6 -14 22 -17
22 -26 -3 -26 -14 0 -18 5 -14 18 5 14 3 14 -10 -2 -9 -11 -16 -15 -16 -9 0
14 28 43 40 43 5 0 6 7 3 17 -4 11 -3 14 6 9 7 -5 10 -14 7 -21z m-69 -47 c0
-13 -1 -17 -4 -10 -3 6 -10 9 -16 5 -7 -4 -6 1 2 10 17 21 17 21 18 -5z m128
11 c11 -16 1 -19 -13 -3 -7 8 -8 14 -3 14 5 0 13 -5 16 -11z m52 -42 c-5 -15
-229 -17 -234 -2 -2 7 40 11 117 12 89 1 120 -2 117 -10z m-69 -34 c-27 -2
-69 -2 -95 0 -27 2 -5 3 47 3 52 0 74 -1 48 -3z"/>
<path d="M1718 1053 l-97 -25 2 -52 2 -51 135 0 135 0 1 50 c1 41 -3 55 -24
78 -30 32 -30 32 -154 0z m147 -3 c18 -20 17 -20 -81 -19 l-99 1 65 18 c85 24
94 24 115 0z m25 -40 c0 -6 -50 -10 -130 -10 -80 0 -130 4 -130 10 0 6 50 10
130 10 80 0 130 -4 130 -10z m-185 -30 c3 -5 18 -10 33 -9 l27 1 -25 8 -25 8
26 1 c27 1 45 -21 32 -41 -3 -6 -1 -8 5 -4 6 3 13 2 17 -4 4 -6 -23 -10 -77
-10 -77 0 -84 2 -84 20 0 16 7 20 36 21 l35 2 -35 7 -35 7 32 2 c17 0 35 -3
38 -9z m115 0 c0 -5 7 -10 16 -10 8 0 12 5 9 10 -3 6 4 10 16 10 22 0 22 0 3
-19 -13 -13 -24 -16 -36 -10 -11 6 -18 5 -21 -4 -2 -7 -8 -3 -16 11 -10 19 -9
22 9 22 11 0 20 -4 20 -10z m60 -46 c0 -2 -16 -4 -36 -4 -19 0 -33 4 -30 8 5
8 66 4 66 -4z"/>
<path d="M1660 948 c0 -4 23 -8 50 -8 28 0 50 5 50 10 0 7 -20 10 -50 9 -27
-2 -50 -6 -50 -11z"/>
<path d="M1310 920 c0 -5 5 -10 10 -10 6 0 10 5 10 10 0 6 -4 10 -10 10 -5 0
-10 -4 -10 -10z"/>
<path d="M633 746 c-4 -8 -24 -16 -43 -18 l-35 -3 -3 -103 c-3 -128 3 -142 66
-142 27 0 53 5 60 12 19 19 16 213 -4 243 -19 28 -30 31 -41 11z m27 -6 c0 -5
-4 -10 -10 -10 -5 0 -10 5 -10 10 0 6 5 10 10 10 6 0 10 -4 10 -10z m-10 -30
l-25 -8 28 -1 c23 -1 27 -5 27 -31 0 -22 -5 -30 -18 -30 -10 0 -23 5 -30 12
-9 9 -15 9 -24 0 -7 -7 -20 -12 -30 -12 -13 0 -18 8 -18 30 0 27 3 30 33 31
l32 1 -30 8 c-25 6 -20 8 25 8 42 0 49 -2 30 -8z m-15 -70 c3 -5 15 -10 26
-10 12 0 19 -7 19 -20 0 -13 -7 -20 -18 -20 -10 0 -23 -5 -30 -12 -9 -9 -15
-9 -24 0 -7 7 -20 12 -30 12 -11 0 -18 7 -18 20 0 13 7 20 19 20 11 0 23 5 26
10 3 6 10 10 15 10 5 0 12 -4 15 -10z m-28 -71 c8 -8 17 -8 31 0 32 17 42 13
42 -18 0 -29 -1 -29 -60 -33 l-60 -3 0 33 c0 24 4 32 18 32 10 0 23 -5 29 -11z
m58 -70 c4 -5 -14 -9 -39 -9 -25 0 -46 4 -46 9 0 12 78 12 85 0z"/>
<path d="M1367 740 c-14 -11 -34 -20 -46 -20 -35 0 -55 -43 -48 -103 6 -45 4
-55 -13 -70 -26 -22 -16 -44 22 -52 35 -8 47 4 40 40 -3 18 4 31 24 48 l29 25
25 -20 c19 -16 25 -29 25 -62 0 -41 0 -41 35 -38 19 1 41 10 48 20 11 14 10
20 -8 34 -23 19 -24 25 -14 110 6 52 4 59 -19 82 -31 31 -65 33 -100 6z m93
-12 c26 -29 27 -97 1 -129 -18 -22 -20 -22 -44 -6 -20 13 -25 24 -24 54 1 21
-3 46 -7 55 -6 14 -2 20 15 27 17 7 19 10 7 10 -9 1 -20 -3 -23 -9 -3 -5 -12
-10 -18 -10 -22 1 27 30 50 30 12 0 31 -10 43 -22z m-88 -35 c28 -25 22 -53
-20 -92 -42 -41 -56 -67 -41 -77 22 -13 -8 -25 -36 -14 l-29 11 31 28 c27 24
29 30 17 46 -46 63 22 149 78 98z m98 -133 c0 -11 7 -20 15 -20 9 0 15 -9 15
-21 0 -14 -5 -19 -14 -16 -7 3 -19 0 -25 -6 -17 -17 -38 7 -23 26 7 8 9 17 6
20 -9 9 3 37 16 37 5 0 10 -9 10 -20z"/>
<path d="M1307 693 c-4 -3 -7 -11 -7 -17 0 -7 3 -7 8 0 4 7 16 14 27 17 19 5
19 5 -1 6 -11 0 -24 -2 -27 -6z"/>
<path d="M1735 748 c-11 -6 -26 -14 -34 -18 -9 -4 -16 -25 -18 -56 -2 -46 0
-53 27 -73 29 -21 43 -71 19 -71 -6 0 -9 -10 -7 -22 3 -20 9 -23 43 -23 34 0
40 3 43 23 2 12 -1 22 -7 22 -15 0 -14 26 2 42 21 21 30 50 32 101 2 40 -1 50
-23 67 -28 22 -47 24 -77 8z m66 -17 c20 -15 24 -28 24 -64 -1 -48 -26 -97
-50 -97 -8 0 -26 11 -41 25 -15 14 -30 25 -34 25 -3 0 -5 24 -4 53 1 46 4 52
25 55 13 2 28 8 34 13 13 13 19 11 46 -10z m-16 -194 c13 -37 11 -41 -17 -44
-31 -2 -46 13 -29 30 6 6 11 19 11 29 0 24 26 13 35 -15z"/>
<path d="M1726 711 c-4 -5 3 -7 14 -4 23 6 26 13 6 13 -8 0 -17 -4 -20 -9z"/>
<path d="M1780 685 c-7 -8 -8 -15 -2 -15 5 0 15 7 22 15 7 8 8 15 2 15 -5 0
-15 -7 -22 -15z"/>
<path d="M1720 632 c0 -4 10 -9 22 -9 18 -2 20 0 8 7 -18 12 -30 13 -30 2z"/>
<path d="M1006 715 c-17 -18 -33 -25 -53 -23 -36 2 -53 -8 -53 -32 0 -10 -4
-22 -10 -25 -14 -9 -12 -59 2 -73 10 -10 8 -14 -10 -18 -25 -7 -27 -15 -10
-32 17 -17 239 -17 256 0 17 17 15 25 -10 32 -18 4 -20 8 -10 18 14 14 16 51
3 76 -5 9 -12 25 -15 35 -3 10 -15 17 -30 17 -27 0 -40 22 -23 39 8 8 8 11 -1
11 -7 0 -23 -11 -36 -25z m18 -20 c-5 -12 2 -15 30 -15 40 0 51 -24 16 -33
-15 -4 -20 -14 -20 -41 0 -20 -4 -36 -10 -36 -5 0 -10 16 -10 36 0 21 -4 33
-10 29 -5 -3 -10 0 -10 9 0 8 6 17 13 19 7 3 5 6 -5 6 -14 1 -18 -7 -19 -31 0
-29 -1 -30 -9 -12 -8 22 -40 41 -40 25 0 -5 6 -12 13 -14 6 -3 -3 -6 -20 -6
-29 -1 -33 2 -33 24 0 27 4 28 63 25 28 -1 37 2 37 14 0 9 4 16 10 16 5 0 7
-7 4 -15z m-61 -82 c-13 -2 -35 -2 -50 0 -16 2 -5 4 22 4 28 0 40 -2 28 -4z
m140 0 c-7 -2 -21 -2 -30 0 -10 3 -4 5 12 5 17 0 24 -2 18 -5z m-116 -20 c-20
-2 -52 -2 -70 0 -17 2 0 4 38 4 39 0 53 -2 32 -4z m116 0 c-7 -2 -21 -2 -30 0
-10 3 -4 5 12 5 17 0 24 -2 18 -5z m-116 -20 c-20 -2 -52 -2 -70 0 -17 2 0 4
38 4 39 0 53 -2 32 -4z m116 0 c-7 -2 -21 -2 -30 0 -10 3 -4 5 12 5 17 0 24
-2 18 -5z m-13 -22 c0 -4 -40 -8 -90 -8 -49 0 -90 4 -90 8 0 5 41 9 90 9 50 0
90 -4 90 -9z m30 -31 c-8 -5 -62 -10 -120 -10 -58 0 -112 5 -120 10 -10 7 29
10 120 10 91 0 130 -3 120 -10z"/>
<path d="M145 695 c-14 -13 -25 -31 -25 -40 0 -8 -4 -15 -9 -15 -18 0 -4 -61
21 -90 25 -29 29 -30 111 -30 84 0 85 0 110 33 24 31 34 87 16 87 -5 0 -9 7
-9 15 0 9 -11 27 -25 40 -21 22 -33 25 -95 25 -62 0 -74 -3 -95 -25z m126 3
c0 -10 2 -10 6 0 2 6 11 12 18 12 18 0 56 -41 52 -55 -2 -5 3 -15 12 -22 15
-11 15 -12 0 -13 -9 0 -19 6 -22 13 -4 10 -26 13 -81 13 -42 -1 -76 2 -76 5 0
3 -12 4 -26 1 -29 -5 -28 4 4 41 18 21 112 25 113 5z m-25 -70 c3 -4 -27 -8
-66 -8 -43 0 -69 4 -65 10 7 11 124 10 131 -2z m74 -5 c-1 -5 -7 -19 -14 -32
l-14 -25 -16 32 -17 32 31 0 c16 0 30 -3 30 -7z m-185 -23 c-18 -8 -18 -9 5
-10 14 -1 19 -4 12 -7 -18 -7 -44 5 -37 17 3 5 14 10 23 9 14 0 13 -2 -3 -9z
m65 1 c0 -5 6 -11 13 -14 6 -2 4 -3 -5 -2 -9 2 -19 -2 -21 -9 -2 -6 -9 -1 -16
12 -10 19 -9 22 9 22 11 0 20 -4 20 -9z m53 2 c-7 -2 -19 -2 -25 0 -7 3 -2 5
12 5 14 0 19 -2 13 -5z m99 -5 c-9 -9 -15 -9 -24 0 -9 9 -7 12 12 12 19 0 21
-3 12 -12z m-65 -39 c9 -8 13 -8 13 0 0 6 12 11 27 11 25 0 26 0 8 -20 -26
-28 -163 -29 -189 -2 -16 18 -14 19 56 20 39 1 77 -3 85 -9z"/>
<path d="M296 368 c-11 -6 -38 -15 -60 -20 -23 -5 -51 -19 -63 -30 -27 -25
-40 -81 -25 -111 5 -12 14 -40 18 -62 l9 -40 65 0 65 0 10 42 c6 23 13 45 18
49 14 14 7 74 -14 114 -17 33 -19 43 -9 55 15 18 12 18 -14 3z m-2 -39 c-7
-11 -34 -12 -34 -1 0 14 11 21 26 15 8 -3 11 -9 8 -14z m-37 -8 c8 -12 19 -17
32 -14 13 3 23 -2 31 -17 15 -28 7 -35 -27 -22 -34 12 -101 13 -109 1 -3 -5
-12 -9 -19 -9 -25 0 6 51 40 66 39 17 38 17 52 -5z m29 -62 c3 -5 14 -9 25 -9
15 0 20 -6 17 -22 -2 -19 -10 -23 -42 -25 -22 -1 -45 2 -52 8 -7 6 -28 7 -48
3 -28 -5 -36 -3 -36 9 0 8 10 21 22 29 25 16 105 21 114 7z m-13 -66 c38 -5
43 -14 31 -60 -6 -21 -13 -23 -64 -23 l-57 0 -7 42 c-8 46 5 63 39 52 11 -3
37 -8 58 -11z"/>
<path d="M202 150 c0 -19 2 -27 5 -17 2 9 2 25 0 35 -3 9 -5 1 -5 -18z"/>
<path d="M238 155 c-3 -14 -1 -25 3 -25 5 0 9 11 9 25 0 14 -2 25 -4 25 -2 0
-6 -11 -8 -25z"/>
<path d="M272 150 c0 -19 2 -27 5 -17 2 9 2 25 0 35 -3 9 -5 1 -5 -18z"/>
<path d="M488 363 c-13 -16 9 -36 60 -53 27 -10 32 -16 32 -44 0 -17 4 -36 9
-42 6 -5 12 -36 14 -69 l3 -60 2 67 c1 37 -2 70 -8 73 -5 3 -10 11 -10 16 0 6
4 8 9 5 5 -4 12 0 15 6 5 11 7 11 12 0 3 -6 10 -10 15 -6 5 3 9 -2 9 -10 0 -9
-4 -16 -10 -16 -6 0 -9 -28 -8 -67 l2 -68 3 60 c2 33 8 64 14 69 5 6 9 25 9
42 0 28 5 34 33 44 50 17 72 37 59 53 -10 12 -21 11 -72 -2 -54 -14 -66 -14
-120 0 -51 13 -62 14 -72 2z m246 -16 c-16 -43 -176 -50 -216 -9 l-21 21 34
-6 c69 -13 199 -5 199 11 0 5 2 7 5 4 3 -3 3 -12 -1 -21z"/>
<path d="M1315 361 c-16 -10 -38 -28 -49 -39 -26 -30 -32 -101 -12 -139 16
-33 61 -73 80 -73 6 0 -3 9 -21 20 -39 23 -63 67 -63 113 0 36 35 97 60 105 8
3 2 -9 -13 -25 -36 -38 -44 -90 -23 -132 20 -37 71 -71 106 -70 15 0 19 3 10
6 -8 3 -19 12 -23 20 -6 9 -17 13 -32 9 -31 -8 -53 17 -35 39 12 14 15 13 35
-5 25 -23 62 -26 84 -6 14 12 19 12 35 1 17 -13 16 -15 -15 -35 -28 -18 -30
-20 -9 -15 18 5 22 4 14 -4 -6 -6 -30 -16 -55 -21 l-44 -9 43 3 c76 7 121 52
128 128 l3 43 -9 -44 c-10 -47 -34 -91 -50 -91 -5 0 2 17 16 38 22 31 25 44
20 82 -4 31 -3 40 4 30 5 -8 10 -10 10 -4 0 19 -40 63 -70 79 -39 20 -89 19
-125 -4z m135 -13 c30 -21 59 -61 31 -44 -14 9 -14 0 0 -26 15 -28 3 -93 -15
-79 -7 6 -15 9 -17 7 -2 -3 -4 9 -4 26 0 33 -24 52 -27 21 0 -10 -4 2 -7 27
-7 52 -23 56 -32 8 -4 -18 -7 -25 -8 -15 0 10 -9 21 -18 24 -10 4 -21 11 -25
17 -4 6 -10 7 -15 3 -4 -5 -1 -12 7 -17 12 -7 12 -12 2 -22 -6 -6 -12 -22 -12
-34 0 -13 -8 -24 -20 -27 -17 -4 -20 0 -20 25 0 17 4 27 10 23 5 -3 7 0 4 9
-8 20 42 70 62 62 9 -3 12 -1 9 4 -7 12 44 13 63 2 7 -5 10 -16 6 -25 -8 -22
24 -36 37 -16 17 28 -26 54 -86 53 -30 0 -49 3 -42 8 24 15 84 8 117 -14z m0
-38 c0 -5 -5 -10 -11 -10 -5 0 -7 5 -4 10 3 6 8 10 11 10 2 0 4 -4 4 -10z
m-113 -49 c-9 -25 -8 -33 8 -50 22 -25 48 -27 66 -4 13 15 12 15 -7 3 -37 -23
-75 7 -60 47 6 15 8 15 17 3 8 -13 12 -12 24 4 14 19 15 19 15 -6 0 -33 27
-45 33 -15 l4 22 2 -22 c1 -29 -32 -63 -61 -63 -46 0 -78 66 -46 98 17 17 18
16 5 -17z"/>
<path d="M1713 348 c1 -20 5 -34 9 -30 4 4 3 21 -1 37 -9 30 -9 30 -8 -7z"/>
<path d="M1753 348 c1 -21 6 -33 11 -28 4 4 4 21 -2 37 -11 28 -11 28 -9 -9z"/>
<path d="M1796 372 c-3 -5 -1 -22 4 -38 8 -28 8 -28 7 8 -2 40 -3 43 -11 30z"/>
<path d="M860 255 c0 -74 3 -95 14 -95 8 0 16 -7 20 -15 7 -19 30 -19 50 0 19
20 99 20 116 0 16 -20 30 -19 58 4 44 37 12 141 -43 141 -18 0 -24 6 -27 28
l-3 27 -92 3 -93 3 0 -96z m180 0 l0 -85 -39 0 c-22 0 -44 6 -51 15 -16 20
-39 19 -62 -2 -17 -15 -18 -13 -18 70 l0 87 85 0 85 0 0 -85z m73 -4 c9 -16
17 -41 17 -57 0 -26 -1 -27 -20 -9 -11 10 -28 15 -39 12 -18 -4 -20 0 -19 39
0 38 3 44 22 44 13 0 28 -11 39 -29z m-173 -80 c0 -26 -17 -36 -35 -21 -18 15
-8 40 16 40 12 0 19 -7 19 -19z m166 8 c10 -17 -23 -46 -37 -32 -7 7 -9 19 -6
27 7 18 33 21 43 5z"/>
<path d="M915 279 c-14 -17 -23 -34 -20 -37 5 -6 117 -3 123 2 6 7 -50 66 -63
66 -7 0 -25 -14 -40 -31z m70 -9 c18 -20 17 -20 -28 -20 -49 0 -60 11 -29 29
25 15 37 13 57 -9z"/>
<path d="M1060 259 c0 -5 5 -7 10 -4 6 3 16 3 22 -1 9 -6 5 -10 -12 -15 l-25
-7 28 -1 c29 -1 34 8 15 27 -15 15 -38 16 -38 1z"/>
<path d="M910 170 c0 -5 5 -10 10 -10 6 0 10 5 10 10 0 6 -4 10 -10 10 -5 0
-10 -4 -10 -10z"/>
<path d="M1070 170 c0 -5 5 -10 10 -10 6 0 10 5 10 10 0 6 -4 10 -10 10 -5 0
-10 -4 -10 -10z"/>
<path d="M1643 285 c-17 -18 -16 -25 0 -25 8 0 19 -11 25 -25 10 -20 8 -35 -8
-75 -22 -55 -26 -76 -9 -47 8 14 25 17 109 17 84 0 101 -3 109 -17 17 -30 12
-8 -9 43 -18 40 -19 52 -9 76 6 15 18 28 25 28 8 0 14 5 14 11 0 5 -4 7 -10 4
-5 -3 -10 1 -10 9 0 14 -17 16 -107 16 -80 -1 -111 -4 -120 -15z m213 -4 c-8
-12 -196 -12 -196 0 0 5 45 9 101 9 56 0 98 -4 95 -9z m-6 -29 c0 -23 -53 -57
-90 -57 -37 0 -90 34 -90 57 0 4 41 8 90 8 50 0 90 -4 90 -8z m-95 -66 c17 0
40 3 52 7 17 6 24 3 33 -13 10 -19 8 -20 -79 -20 -85 0 -89 1 -84 21 5 16 11
19 27 13 11 -4 35 -7 51 -8z m53 -43 c-27 -2 -69 -2 -95 0 -27 2 -5 3 47 3 52
0 74 -1 48 -3z"/>
</g>
</svg>
